<?xml version="1.0" encoding="utf-8"?>
<!-- Generator: Adobe Illustrator 15.0.0, SVG Export Plug-In . SVG Version: 6.00 Build 0)  -->
<!DOCTYPE svg PUBLIC "-//W3C//DTD SVG 1.1//EN" "http://www.w3.org/Graphics/SVG/1.1/DTD/svg11.dtd">
<svg version="1.1" id="Layer_2" xmlns="http://www.w3.org/2000/svg" xmlns:xlink="http://www.w3.org/1999/xlink" x="0px" y="0px"
	 width="148px" height="132px" viewBox="0 0 148 132" enable-background="new 0 0 148 132" xml:space="preserve">
<linearGradient id="SVGID_1_" gradientUnits="userSpaceOnUse" x1="75.1611" y1="1.8408" x2="75.1611" y2="127.8413">
	<stop  offset="0" style="stop-color:#FFC61E"/>
	<stop  offset="1" style="stop-color:#FFB400"/>
</linearGradient>
<rect x="10.661" y="1.841" fill="url(#SVGID_1_)" width="129" height="126"/>
<radialGradient id="SVGID_2_" cx="56.8281" cy="49.8408" r="84.4334" fx="68.4096" fy="48.6211" gradientUnits="userSpaceOnUse">
	<stop  offset="0" style="stop-color:#6B481E"/>
	<stop  offset="1" style="stop-color:#342A26"/>
</radialGradient>
<rect x="20.661" y="11.841" fill="url(#SVGID_2_)" width="109" height="106"/>
<g>
	<linearGradient id="SVGID_3_" gradientUnits="userSpaceOnUse" x1="97.1611" y1="0.063" x2="97.1611" y2="128.0415">
		<stop  offset="0" style="stop-color:#FFC61E"/>
		<stop  offset="1" style="stop-color:#FFB400"/>
	</linearGradient>
	<rect x="91.661" y="47.841" fill="url(#SVGID_3_)" width="11" height="43"/>
	<linearGradient id="SVGID_4_" gradientUnits="userSpaceOnUse" x1="97.2334" y1="2.0806" x2="97.2334" y2="127.0828">
		<stop  offset="0" style="stop-color:#FFC61E"/>
		<stop  offset="1" style="stop-color:#FFB400"/>
	</linearGradient>
	<circle fill="url(#SVGID_4_)" cx="97.233" cy="37.247" r="5.917"/>
	<linearGradient id="SVGID_5_" gradientUnits="userSpaceOnUse" x1="62.6606" y1="1.1743" x2="62.6606" y2="126.1766">
		<stop  offset="0" style="stop-color:#FFC61E"/>
		<stop  offset="1" style="stop-color:#FFB400"/>
	</linearGradient>
	<path fill="url(#SVGID_5_)" d="M55.078,33.841l-0.047,4.791l-15.37,52.209h11.333l3.769-15h16.462l3.769,15h10.667l-16.781-57
		H55.078z M57.024,66.841l5.97-23.76l5.97,23.76H57.024z"/>
</g>
</svg>
