<?xml version="1.0" encoding="utf-8"?>
<!-- Generator: Adobe Illustrator 15.0.0, SVG Export Plug-In . SVG Version: 6.00 Build 0)  -->
<!DOCTYPE svg PUBLIC "-//W3C//DTD SVG 1.1//EN" "http://www.w3.org/Graphics/SVG/1.1/DTD/svg11.dtd">
<svg version="1.1" id="Layer_1" xmlns="http://www.w3.org/2000/svg" xmlns:xlink="http://www.w3.org/1999/xlink" x="0px" y="0px"
	 width="145px" height="131.667px" viewBox="0 0 145 131.667" enable-background="new 0 0 145 131.667" xml:space="preserve">
<g id="illustrator">
	
		<linearGradient id="SVGID_1_" gradientUnits="userSpaceOnUse" x1="318.2031" y1="-216.4072" x2="318.2031" y2="-342.4067" gradientTransform="matrix(1 0 0 -1 -246 -214)">
		<stop  offset="0" style="stop-color:#FFC61E"/>
		<stop  offset="1" style="stop-color:#FFB400"/>
	</linearGradient>
	<rect x="7.703" y="2.407" fill="url(#SVGID_1_)" width="129.001" height="125.999"/>
	
		<radialGradient id="SVGID_2_" cx="318.2031" cy="-279.4067" r="53.7555" gradientTransform="matrix(1 0 0 -1 -246 -214)" gradientUnits="userSpaceOnUse">
		<stop  offset="0" style="stop-color:#6B481E"/>
		<stop  offset="1" style="stop-color:#342A26"/>
	</radialGradient>
	<rect x="17.703" y="12.407" fill="url(#SVGID_2_)" width="109.001" height="105.999"/>
	<g>
		
			<linearGradient id="SVGID_3_" gradientUnits="userSpaceOnUse" x1="340.2031" y1="-214.6318" x2="340.2031" y2="-342.6074" gradientTransform="matrix(1 0 0 -1 -246 -214)">
			<stop  offset="0" style="stop-color:#FFC61E"/>
			<stop  offset="1" style="stop-color:#FFB400"/>
		</linearGradient>
		<rect x="88.704" y="48.407" fill="url(#SVGID_3_)" width="11" height="42.999"/>
		
			<linearGradient id="SVGID_4_" gradientUnits="userSpaceOnUse" x1="340.2744" y1="-216.6475" x2="340.2744" y2="-341.6497" gradientTransform="matrix(1 0 0 -1 -246 -214)">
			<stop  offset="0" style="stop-color:#FFC61E"/>
			<stop  offset="1" style="stop-color:#FFB400"/>
		</linearGradient>
		<circle fill="url(#SVGID_4_)" cx="94.274" cy="37.813" r="5.917"/>
		
			<linearGradient id="SVGID_5_" gradientUnits="userSpaceOnUse" x1="305.7031" y1="-215.7417" x2="305.7031" y2="-340.7419" gradientTransform="matrix(1 0 0 -1 -246 -214)">
			<stop  offset="0" style="stop-color:#FFC61E"/>
			<stop  offset="1" style="stop-color:#FFB400"/>
		</linearGradient>
		<path fill="url(#SVGID_5_)" d="M52.12,34.407l-0.047,4.791l-15.37,52.208h11.333l3.769-15h16.461l3.77,15h10.668L65.922,34.407
			H52.12z M54.066,67.406l5.97-23.759l5.97,23.759H54.066z"/>
	</g>
</g>
<g id="photoshop">
	
		<linearGradient id="SVGID_6_" gradientUnits="userSpaceOnUse" x1="318.2031" y1="-218.4082" x2="318.2031" y2="-342.1622" gradientTransform="matrix(1 0 0 -1 -246 -214)">
		<stop  offset="0" style="stop-color:#00DFFC"/>
		<stop  offset="1" style="stop-color:#65D3FE"/>
	</linearGradient>
	<rect x="7.703" y="2.407" fill="url(#SVGID_6_)" width="129.001" height="125.999"/>
	
		<radialGradient id="SVGID_7_" cx="285.7021" cy="-250.4062" r="99.5573" gradientTransform="matrix(1 0 0 -1 -246 -214)" gradientUnits="userSpaceOnUse">
		<stop  offset="0" style="stop-color:#424277"/>
		<stop  offset="1" style="stop-color:#030323"/>
	</radialGradient>
	<rect x="17.703" y="12.407" fill="url(#SVGID_7_)" width="109.001" height="105.999"/>
	
		<linearGradient id="SVGID_8_" gradientUnits="userSpaceOnUse" x1="301.2227" y1="-219.7388" x2="301.2227" y2="-335.9291" gradientTransform="matrix(1 0 0 -1 -246 -214)">
		<stop  offset="0" style="stop-color:#00DFFC"/>
		<stop  offset="1" style="stop-color:#65D3FE"/>
	</linearGradient>
	<path fill="url(#SVGID_8_)" d="M37.507,34.232c3.527-0.687,8.311-1.201,14.737-1.201c7.055,0,12.149,1.63,15.521,4.721
		c3.137,2.833,5.174,7.382,5.174,12.79c0,5.494-1.567,9.958-4.469,13.047c-3.92,4.207-9.877,6.266-16.695,6.266
		c-1.803,0-3.371-0.086-4.703-0.428v21.889h-9.563L37.507,34.232L37.507,34.232z M47.069,61.101
		c1.255,0.429,2.744,0.515,4.703,0.515c7.211,0,11.602-3.948,11.602-10.644c0-6.438-4.075-9.785-10.738-9.785
		c-2.664,0-4.547,0.257-5.564,0.515v19.399H47.069z"/>
	
		<linearGradient id="SVGID_9_" gradientUnits="userSpaceOnUse" x1="338.3115" y1="-219.7393" x2="338.3115" y2="-335.9289" gradientTransform="matrix(1 0 0 -1 -246 -214)">
		<stop  offset="0" style="stop-color:#00DFFC"/>
		<stop  offset="1" style="stop-color:#65D3FE"/>
	</linearGradient>
	<path fill="url(#SVGID_9_)" d="M80.288,81.129c2.193,1.512,6.5,3.203,10.074,3.203c4.387,0,6.336-2.049,6.336-4.896
		c0-2.936-1.625-4.355-6.498-6.314c-7.719-2.848-10.887-7.473-10.887-12.632c0-7.651,5.77-13.522,14.947-13.522
		c4.387,0,8.205,1.156,10.561,2.58l-2.029,7.65c-1.625-1.068-4.873-2.491-8.367-2.491c-3.574,0-5.523,1.957-5.523,4.626
		c0,2.756,1.867,4.001,6.904,6.046c7.23,2.76,10.479,6.764,10.561,13.168c0,7.918-5.604,13.611-16.084,13.611
		c-4.795,0-9.1-1.246-12.023-3.025L80.288,81.129z"/>
</g>
<g id="angular">
	<polygon fill="#B2B2B2" points="72.011,1.896 12.25,22.928 21.693,101.227 72.075,128.918 122.716,100.852 132.157,22.556 	"/>
	<polygon fill="#A5120D" points="126.196,27.082 71.872,8.556 71.872,122.303 117.399,97.105 	"/>
	<polygon fill="#DC1B16" points="18.956,27.416 27.047,97.441 71.87,122.303 71.87,8.554 	"/>
	<path fill="#F1F1F1" d="M86.825,69.109l-14.953,6.992h-15.76l-7.409,18.527l-13.781,0.258l36.95-82.199L86.825,69.109z
		 M85.38,65.588L71.972,39.044L60.974,65.131H71.87L85.38,65.588z"/>
	<polygon fill="#B2B2B2" points="71.87,12.688 71.97,39.044 84.45,65.15 71.899,65.15 71.87,76.084 89.228,76.102 97.337,94.891 
		110.524,95.135 	"/>
</g>
<g id="bootstrap">
	<path fill="#563A7F" d="M134.702,109.062c0,10.406-8.436,18.844-18.844,18.844H28.546c-10.407,0-18.844-8.438-18.844-18.844V21.752
		c0-10.408,8.437-18.845,18.844-18.845h87.312c10.408,0,18.846,8.437,18.846,18.845v87.311H134.702z"/>
	<g>
		<path fill="#FFFFFF" d="M45.768,29.588h28.241c5.59,0,9.758,0.232,12.504,0.697c2.748,0.467,5.205,1.438,7.373,2.916
			c2.17,1.479,3.977,3.445,5.422,5.903c1.445,2.457,2.17,5.213,2.17,8.265c0,3.311-0.893,6.346-2.676,9.107
			c-1.783,2.764-4.201,4.836-7.252,6.217c4.303,1.252,7.613,3.387,9.928,6.408c2.312,3.021,3.469,6.57,3.469,10.65
			c0,3.215-0.744,6.338-2.238,9.373c-1.494,3.037-3.535,5.463-6.121,7.275c-2.586,1.814-5.773,2.934-9.564,3.352
			c-2.377,0.256-8.111,0.418-17.205,0.479H45.768V29.588z M60.032,41.346v16.337h9.348c5.559,0,9.014-0.08,10.363-0.241
			c2.441-0.289,4.361-1.132,5.758-2.529c1.398-1.397,2.096-3.236,2.096-5.519c0-2.185-0.602-3.959-1.807-5.325
			c-1.205-1.363-2.996-2.191-5.373-2.48c-1.414-0.16-5.479-0.242-12.191-0.242H60.032L60.032,41.346z M60.032,69.439v18.893h13.205
			c5.139,0,8.4-0.146,9.781-0.436c2.121-0.385,3.85-1.326,5.184-2.816c1.332-1.494,2-3.494,2-6c0-2.121-0.518-3.922-1.543-5.398
			c-1.027-1.477-2.516-2.553-4.457-3.229c-1.943-0.674-6.16-1.012-12.65-1.012h-11.52V69.439z"/>
	</g>
</g>
<g id="css3">
	<polygon fill="#0071BA" points="28.048,114.383 18.225,4.19 126.183,4.19 116.349,114.365 72.139,126.623 	"/>
	<polygon fill="#29A9E0" points="72.294,117.246 107.974,107.432 116.331,13.366 72.294,13.366 	"/>
	<polygon fill="#B1B1B1" points="40.712,53.852 41.897,67.346 72.294,53.852 72.294,40.334 	"/>
	<polygon fill="#E4E4E4" points="105.96,25.906 72.294,40.334 72.294,53.852 104.798,39.401 	"/>
	<polygon fill="#E4E4E4" points="72.294,89.16 72.189,89.174 57.115,85.127 56.13,74.363 42.562,74.363 44.456,95.568 
		72.188,103.246 72.294,103.221 	"/>
	<polygon fill="#FFFFFF" points="72.294,53.852 72.294,67.346 88.798,67.346 87.298,84.99 72.294,89.172 72.294,103.232 
		99.933,95.555 103.571,53.852 	"/>
	<polygon fill="#E4E4E4" points="72.294,53.852 40.712,53.852 41.897,67.346 72.294,67.346 	"/>
	<polygon fill="#E4E4E4" points="72.294,39.401 72.294,25.906 72.156,25.906 38.313,25.906 39.512,39.401 	"/>
	<polygon fill="#FFFFFF" points="72.294,25.906 72.294,39.232 72.294,39.401 104.798,39.401 105.96,25.906 	"/>
</g>
<g id="emmet">
	<path fill="#3AB780" d="M121.144,55.498l-10.84-10.842l5.576-22.924L92.649,27L82.114,16.469l52.037-13.01L121.144,55.498
		L121.144,55.498z"/>
	<path fill="#3AB780" d="M103.179,127.355L10.255,34.434l52.036-13.009l10.532,10.53l-37.17,9.292l21.063,21.063l24.47-5.885
		l-6.191,24.16l21.061,21.062l9.291-37.172l10.844,10.842L103.179,127.355L103.179,127.355z"/>
</g>
<path id="git" fill="#F15045" d="M133.261,59.756L77.854,4.352c-3.188-3.193-8.365-3.193-11.558,0L54.792,15.857l14.593,14.596
	c3.396-1.146,7.282-0.377,9.985,2.326c2.715,2.721,3.48,6.643,2.307,10.047L95.743,56.89c3.402-1.173,7.328-0.413,10.047,2.308
	c3.799,3.797,3.799,9.953,0,13.752c-3.801,3.801-9.955,3.801-13.756,0c-2.857-2.857-3.564-7.057-2.117-10.576L76.8,49.255
	l-0.002,34.522c0.928,0.459,1.803,1.068,2.572,1.838c3.799,3.799,3.799,9.951,0,13.754c-3.799,3.799-9.956,3.799-13.751,0
	c-3.8-3.803-3.8-9.955,0-13.754c0.94-0.938,2.024-1.646,3.184-2.121V48.652c-1.157-0.474-2.241-1.178-3.184-2.121
	c-2.878-2.877-3.568-7.1-2.095-10.631L49.137,21.509l-37.99,37.99c-3.193,3.192-3.193,8.37,0,11.562l55.407,55.402
	c3.19,3.193,8.365,3.193,11.561,0l55.146-55.145C136.452,68.123,136.452,62.945,133.261,59.756L133.261,59.756z"/>
<g id="grunt">
	<path fill="#FBA919" d="M30.195,31.987c0,0,2.229,8.592,2.546,11.455c0.319,2.863-5.729,9.227-5.729,12.408
		c0,3.184,1.271,8.909,8.272,11.772s7.953,10.182,7.953,14.637s-2.545,13.045-2.545,13.045s-1.59,21.318,7,25.137
		c8.592,3.818,6.684,3.818,8.592,3.818s15.908,5.729,24.181,3.5c8.273-2.227,10.5-4.771,10.5-4.771s8.273,0.637,10.818-6.684
		c2.547-7.316,4.137-22.59,3.182-29.59s-2.227-16.227,3.498-19.41c5.73-3.182,11.775-6.995,10.82-10.179s-6.045-7.639-6.045-7.639
		s-1.273-7.953-0.318-9.861c0.953-1.91,6.682-6.684,3.5-10.184c-3.18-3.5-8.91-3.5-8.91-3.5l-7.316,0.637
		c0,0-12.408-11.137-28.638-10.498c-16.226,0.635-26.41,10.498-26.41,10.498s-5.406-1.908-10.181,0
		C30.193,28.489,29.242,26.579,30.195,31.987z"/>
	<path fill="#E78724" d="M59.27,79.361c0,0-6.301,9.633-10.922,16.471c-0.716,1.057,4.621,1.131,4.621,1.131L59.27,79.361z"/>
	<path fill="#E78724" d="M62.27,59.386c0,0-1.898,4.737-2.939,7.251c-1.129,2.73-5.436,4.088-5.436,4.088s2.232-2.34,2.232-8.27
		c0-2.487,3.213-3.476,3.213-3.476L62.27,59.386z"/>
	<path fill="#E78724" d="M60.352,62.067c0,0-3.892,4.63-11.119,2.036c-7.226-2.593-7.967-11.858-7.967-14.452
		c0-2.596,13.713,2.594,15.565,3.705C58.686,54.468,62.204,58.915,60.352,62.067z"/>
	<path fill="#E78724" d="M33.057,12.567c0,0,6.67-1.299,11.116,2.225c4.449,3.52,5.744,6.301,5.744,6.301l-7.495,5.939
		c0,0-3.622-1.68-4.732-6.496C36.577,15.716,37.318,13.495,33.057,12.567z"/>
	<path fill="#E78724" d="M58.404,48.685c-2.872-4.076-7.604-5.854-11.383-6.148c-6.443-0.504-9.502,1.773-9.502,1.773
		s10.553,0.447,13.594,4.441c5.664,7.436,13.923,8.039,15.244,6.406c-1.527,0.076-3.207-0.682-5.006-2.383
		C60.229,51.712,59.314,49.979,58.404,48.685z"/>
	<path fill="#E78724" d="M40.59,63.102c0,0-11.707-4.024-9.482-8.101c2.225-4.078,0.453-6.299,0.453-6.299
		s-6.538,4.881-4.871,10.068c1.023,3.186,2.742,5.487,12.174,9.907c4.523,8.402,0.935,23.529,1.148,23.6
		c0.358,0.119,6.352-2.963,5.942-17.111C45.83,70.818,45.482,64.887,40.59,63.102z"/>
	<path fill="#E78724" d="M55.934,19.817c-4.91,2.494-11.635,5.969-11.635,5.969l2.646,1.324c-0.252,0.408-0.375,0.652-0.375,0.652
		l2.719,1.234c0,0,6.632,4.805,10.695,7.895c-1.354-4.172-5.332-10.727-5.332-10.727S53.525,23.153,55.934,19.817z"/>
	<path fill="#E78724" d="M72.243,121.484c-15.091,0-20.201-7.66-20.201-7.66l2.358,5.742c0.891,2.482,10.398,10.215,17.818,10.215"
		/>
	<path fill="#E78724" d="M53.695,108.648c0,0,1.39,8.482,6.947,8.482c4.725,0,6.116-7.168,6.116-8.646L53.695,108.648z"/>
	<path fill="#E78724" d="M44.445,95.852c0.494-1.357,2.223-6.855,2.777-11.857c0.666-5.992,0.424-14.758,0.424-14.758
		s-1.482,5.744-2.78,6.676c-1.296,0.926-3.705,7.225-3.705,7.225s-1.29,9.381-1.904,12.531
		C40.956,96.006,42.387,95.004,44.445,95.852z"/>
	<path fill="#E78724" d="M31.02,58.677c0,0,3.15-1.111,4.078-7.967c0.926-6.857-1.113-12.787-1.113-12.787s0.187,9.451-0.926,11.305
		c-1.113,1.852-2.039,2.408-3.336,4.816C28.424,56.456,30.277,57.935,31.02,58.677z"/>
	<path fill="#87CCEE" d="M47.734,27.188"/>
	<path fill="#FDC168" d="M34.781,14.188l-0.645-0.406C32.242,13.845,34.781,14.188,34.781,14.188z"/>
	<path fill="#FBA919" d="M58.497,17.788c0,0-2.964-0.494-4.448-2.717c-1.482-2.225-5.682-6.672-12.377-6.721
		C34.979,8.3,28.355,10.13,28.355,10.13l5.781,3.65c0.611-0.02,1.682-0.01,3.448,0.049c7.256,0.24,8.373,7.418,8.373,7.418
		l25.571-3.521"/>
	<path fill="#FFFFFF" d="M60.968,57.427c0,0-3.459,3.459-8.771,2.346c-5.312-1.111-8.524-3.459-8.771-7.535
		c-0.246-4.076,1.112-5.682,1.112-5.682s5.929,1.854,8.771,4.324S58.251,57.304,60.968,57.427z"/>
	<path fill="#C9C9C9" d="M56.782,56.19c0,0-3,1.371-6.354,0.256c-4.389-1.465-4.683-6.029-4.683-6.029s-2.692,7.902,4.856,9.422
		c6.057,1.223,9.639-2.287,9.639-2.287L56.782,56.19z"/>
	<path fill="#463014" d="M60.229,100.482"/>
	<path fill="#463014" d="M58.913,16.11C58.591,9.335,64.146,3.937,66.07,3.708c0.107,1.146-0.104,5.627,1.818,7.004
		c0.562-3.658,2.455-7.691,9.937-10.334c-1.602,4.248-0.213,7.809,0.447,9.459c5.107-4.639,8.551-3.871,8.551-3.871
		s-3.549,6.125-2.16,10.145C74.407,15.306,58.964,17.2,58.913,16.11z"/>
	<path fill="#463014" d="M37.171,26.435c-2.446-2.029-0.623-3.914-0.817-6.221c-0.104-1.229-0.201-2.385-0.605-3.025
		c-2.252-3.555-7.564-4.633-7.617-4.645l-2.494-0.49l1.65-1.93c0.215-0.25,6.992-6.717,17.48-3.33
		c7.338,2.365,12.769,10.391,12.971,10.715l-3.678,1.729c-0.043-0.066-4.338-7.609-10.633-9.639
		c-5.089-1.643-9.777-0.08-11.787,0.943c2.137,0.852,4.928,2.404,6.609,5.061c0.794,1.254,0.928,2.834,1.057,4.363
		c0.172,2.023,0.33,3.936,1.821,5.174L37.171,26.435z"/>
	<path fill="#463014" d="M30.635,56.071c0,0,3.083-3.822,3.995-11.262c0.358-2.932-0.276-8.711-1.297-10.934
		c0.187,5.467-1.204,10.934-1.204,10.934S31.191,54.96,30.635,56.071z"/>
	<path fill="#463014" d="M46.893,22.573c-0.002-0.008-0.99-4.322-3.729-6.504c-3.862-3.07-8.579-1.438-8.625-1.424l-0.686-2.113
		c0.229-0.074,5.619-1.773,10.588,1.719c4.998,3.514,5.599,6.695,5.649,7.047L46.893,22.573z"/>
	<path fill="#463014" d="M40.318,53.331c0,0-1.617-2.316-1.326-4.863c0.145-1.258,0.729-2.549,1.77-3.006
		c1.934-0.85,2.789,1.342,2.789,1.342S40.829,47.474,40.318,53.331z"/>
	<path fill="#463014" d="M60.229,100.482"/>
	<path fill="#463014" d="M58.077,56.858c0.067,0.127,0.104,0.197,0.104,0.197s-5.045,3.785-10.216-0.057
		c-2.768-2.059-2.507-7.15-1.657-9.311c2.205,0.5,4.074,1.4,5.637,2.453c-1.975-1.764-3.703-3.062-3.699-3.092L46,46.415
		l-4.363-1.494c-0.057,0.332-1.648,7.793,2.946,12.877c2.036,2.252,11.584,7.302,16.116-1.33L58.077,56.858z"/>
	<path fill="#463014" d="M57.604,57.415c2.842,4.322,10.01,1.854,9.885-2.719c0,0-4.788,2.643-9.02-2.225
		c-2.471-2.84-10.384-10.674-21.119-8.07C44.764,46.032,54.578,52.804,57.604,57.415z"/>
	<g>
		<path fill="#463014" d="M60.229,100.482"/>
	</g>
	<path fill="#463014" d="M36.35,69.613c0.684,0.395,3.092,2.891,3.094,6.623c0,1.873-0.187,11.273-1.112,17.02
		c1.394,0.906,2.364,1.098,3.752,2.021c0.694-6.654,1.192-16.297,0.96-20.189c-0.266-4.438-2.643-7.414-4.844-8.686
		c-0.69-0.396-1.412-0.785-2.139-1.178c-3.773-2.039-7.676-4.149-7.676-7.751c0-2.816,1.096-3.697,2.256-4.631l0.125-0.104
		c0.769-0.621,1.639-1.326,2.155-2.484c1.408-3.164,1.64-11.229,0-13.273c-0.815-1.021-3.004-4.451-2.376-6.756
		c0.24-0.879,0.794-1.531,1.696-1.994c0.954-0.486,2.243-0.734,3.831-0.734c3.117,0,6.574,0.947,8.359,1.514
		c6.375,2.02,14.066,7.846,16.27,9.584c0.064,0.047,0.102,0.076,0.107,0.082l1.412,0.979l-0.884-1.477
		c-0.055-0.092-5.644-9.281-15.635-12.65c-1.944-0.654-5.763-1.756-9.517-1.756c-2.234,0-4.131,0.393-5.633,1.16
		c-1.83,0.936-3.069,2.428-3.584,4.316c-1.263,4.629,2.848,9.781,2.988,9.945c0.479,0.855,0.682,7.068-0.426,9.557
		c-0.151,0.344-0.568,0.68-1.098,1.107c-0.166,0.133-0.352,0.271-0.548,0.42c-1.562,1.18-3.923,2.961-3.923,7.064
		c0,5.618,5.693,8.663,10.268,11.112C34.984,68.857,35.701,69.24,36.35,69.613z"/>
	<g>
		<g>
			<path fill="#463014" d="M37.171,26.435c-2.446-2.029-0.623-3.914-0.817-6.221c-0.104-1.229-0.201-2.385-0.605-3.025
				c-2.252-3.555-7.564-4.633-7.617-4.645l-2.494-0.49l1.65-1.93c0.215-0.25,6.992-6.717,17.48-3.33
				c7.338,2.365,12.769,10.391,12.971,10.715l-3.678,1.729c-0.043-0.066-4.338-7.609-10.633-9.639
				c-5.089-1.643-9.777-0.08-11.787,0.943c2.137,0.852,4.928,2.404,6.609,5.061c0.794,1.254,0.928,2.834,1.057,4.363
				c0.172,2.023,0.33,3.936,1.821,5.174L37.171,26.435z"/>
		</g>
		<g>
			<path fill="#463014" d="M37.091,26.851l-0.157-0.131c-1.814-1.506-1.492-2.99-1.182-4.424c0.143-0.664,0.29-1.35,0.23-2.051
				c-0.101-1.182-0.194-2.295-0.551-2.857c-2.145-3.387-7.326-4.471-7.377-4.48l-3.115-0.609l2.064-2.414
				c0.038-0.045,4.391-4.439,11.76-4.439c2.01,0,4.068,0.334,6.116,0.996c7.658,2.469,13.122,10.789,13.172,10.871l0.224,0.355
				l-4.354,2.045l-0.175-0.275c-0.468-0.799-4.595-7.604-10.433-9.488c-1.434-0.461-2.943-0.695-4.487-0.695
				c-2.798,0-5.063,0.764-6.271,1.273c2.016,0.908,4.461,2.438,6.008,4.877c0.843,1.33,0.979,2.955,1.111,4.525
				c0.164,1.951,0.318,3.787,1.688,4.924l0.519,0.428L37.091,26.851z"/>
		</g>
	</g>
	<g>
		<g>
			<path fill="#463014" d="M46.893,22.573c-0.002-0.008-0.99-4.322-3.729-6.504c-3.862-3.07-8.579-1.438-8.625-1.424l-0.686-2.113
				c0.229-0.074,5.619-1.773,10.588,1.719c4.998,3.514,5.599,6.695,5.649,7.047L46.893,22.573z"/>
		</g>
		<g>
			<path fill="#463014" d="M46.626,23.079l-0.097-0.426c-0.01-0.041-0.979-4.209-3.598-6.293c-1.492-1.188-3.293-1.791-5.348-1.791
				c-1.604,0-2.794,0.383-2.924,0.428l-0.354,0.117l-0.92-2.82l0.354-0.113c0.158-0.051,1.589-0.496,3.611-0.496
				c2.67,0,5.194,0.781,7.305,2.264c5.123,3.602,5.748,6.93,5.802,7.297l0.045,0.291L46.626,23.079z M37.586,13.831
				c2.193,0,4.204,0.674,5.809,1.949c2.326,1.852,3.42,5.121,3.75,6.293l2.521-1.004c-0.229-0.891-1.232-3.561-5.436-6.516
				c-2.012-1.412-4.324-2.129-6.877-2.129c-1.4,0-2.488,0.223-3.026,0.357l0.455,1.406C35.309,14.048,36.324,13.831,37.586,13.831z"
				/>
		</g>
	</g>
	<path fill="#463014" d="M60.411,115.098L60.411,115.098c-1.097,0-2.213-0.396-2.986-1.068c-0.594-0.512-2.599-2.354-3.481-4.607
		c-0.33-0.842-0.258-1.52,0.223-2.004c0.33-0.332,1.014-0.729,2.404-0.729l0.99-0.002c1.178-0.002,3.164-0.002,4.858-0.002h1.627
		c1.058,0,1.813,0.229,2.252,0.676c0.56,0.574,0.382,1.307,0.224,1.689c-0.271,0.678-1.398,2.871-3.31,4.912
		C62.527,114.693,61.532,115.098,60.411,115.098z"/>
	<path fill="#463014" d="M61.561,57.669l-3.955-0.254c0,0,1.012,1.781,1.666,4.084c0.737,2.604-0.676,6.413-0.676,6.413
		S63.866,61.946,61.561,57.669z"/>
	<g>
		<path fill="#463014" d="M56.624,125.535c-14.069-1.082-19.021-14.377-19.021-17.146l3.674,0.002l-1.836-0.002h1.836
			c0.02,1.197,3.759,12.57,15.627,13.484L56.624,125.535z"/>
	</g>
	<path fill="#FFFFFF" d="M52.67,101.715c-0.221-1.271-0.243-2.477,0.023-3.66c-1.068-0.803-2.986-1.102-4.428-1.568
		c-1.177-0.742-7.199,0.766-11.57-4.523c-5.477-6.623-4.323-10.578-4.323-10.578c-1.404,1.562-2.765,0.969-4.904,8.24
		c-2.144,7.271,1.005,12.346,6.875,17.438c2.772,2.404,6.692,3.396,10.063,3.775c-1.129-1.135,1.929-1.248,4.037-2.035
		c-0.168-1.703,0.113-3.355,1.383-4.689c0.766-0.801,1.75-1.279,2.771-1.66c0.057-0.135,0.104-0.256,0.159-0.383
		C52.725,101.955,52.691,101.838,52.67,101.715z"/>
	<path fill="#C9C9C9" d="M48.417,108.754c-0.122-0.355-0.214-0.719-0.306-1.086c-0.098-0.4-0.582-1.535,0.017-0.24
		c-0.153-0.332-0.255-0.674-0.329-1.018c-9.505-0.012-17.773-6.537-16.177-20.258c-1.244-1.652-2.985,3.33-2.985,3.33
		s-4.76,13.816,7.53,19.174c4.095,1.785,7.714,3.062,8.567,2.547c1.777,0.363,3.384-0.877,3.986-1.693
		C48.607,109.26,48.503,109.01,48.417,108.754z"/>
	<path fill="#463014" d="M52.499,99.727c0.015-1.158,0.251-2.281,0.812-3.396c0.039-0.076,0.084-0.15,0.127-0.227
		c-3.658-0.033-7.871-0.383-11.457-1.816c-3.943-1.578-8.875-6.975-9.724-13.312c0,0-7.425,5.73-5.243,17.994
		c2.049,11.518,11.686,15.27,22.676,15.906c0.006-0.074-1.235-2.643-0.844-4.211c-6.24,0.451-13.22-1.957-16.589-7.5
		c-3.084-5.074-2.22-13.736-0.95-15.008C34.396,97.912,45.523,99.896,52.499,99.727z"/>
	<path fill="#463014" d="M72.243,114.848"/>
	<path fill="#463014" d="M53.65,92.74c-1.979,5.805-6.019,10.502-6.019,10.502s5.558-0.252,5.864-1.236
		c0.227-0.725,5.018-11.939,6.855-25.076C58.624,79.771,53.82,92.244,53.65,92.74z"/>
	<path fill="#E78724" d="M85.134,79.361c0,0,6.301,9.633,10.924,16.471c0.715,1.057-4.623,1.131-4.623,1.131L85.134,79.361z"/>
	<path fill="#E78724" d="M82.134,59.386c0,0,1.898,4.737,2.939,7.251c1.131,2.73,5.436,4.088,5.436,4.088s-2.23-2.34-2.23-8.27
		c0-2.487-3.213-3.476-3.213-3.476L82.134,59.386z"/>
	<path fill="#E78724" d="M84.052,62.067c0,0,3.893,4.63,11.117,2.036c7.23-2.595,7.971-11.858,7.971-14.452
		c0-2.596-13.713,2.594-15.564,3.705C85.722,54.468,82.198,58.915,84.052,62.067z"/>
	<path fill="#E78724" d="M111.349,12.567c0,0-6.674-1.299-11.119,2.225c-4.445,3.52-5.744,6.301-5.744,6.301l7.496,5.939
		c0,0,3.623-1.68,4.732-6.496C107.825,15.716,107.085,13.495,111.349,12.567z"/>
	<path fill="#E78724" d="M85.997,48.685c2.873-4.076,7.605-5.854,11.385-6.148c6.443-0.504,9.502,1.773,9.502,1.773
		s-10.553,0.447-13.596,4.441c-5.662,7.436-13.92,8.039-15.24,6.406c1.525,0.076,3.207-0.682,5.004-2.383
		C84.175,51.712,85.087,49.979,85.997,48.685z"/>
	<path fill="#E78724" d="M103.813,63.102c0,0,11.707-4.024,9.48-8.101c-2.225-4.078-0.453-6.299-0.453-6.299
		s6.539,4.881,4.871,10.068c-1.021,3.186-2.74,5.487-12.174,9.907c-4.521,8.402-0.936,23.529-1.146,23.6
		c-0.357,0.119-6.352-2.963-5.941-17.111C98.573,70.818,98.921,64.887,103.813,63.102z"/>
	<path fill="#E78724" d="M88.472,19.817c4.906,2.494,11.635,5.969,11.635,5.969L97.46,27.11c0.252,0.408,0.373,0.652,0.373,0.652
		l-2.717,1.234c0,0-6.633,4.805-10.695,7.895c1.355-4.172,5.33-10.727,5.33-10.727S90.878,23.153,88.472,19.817z"/>
	<path fill="#E78724" d="M72.161,121.484c15.086,0,20.197-7.66,20.197-7.66l-2.355,5.742c-0.893,2.482-10.4,10.215-17.819,10.215"/>
	<path fill="#E78724" d="M90.706,108.648c0,0-1.389,8.482-6.947,8.482c-4.723,0-6.111-7.168-6.111-8.646L90.706,108.648z"/>
	<path fill="#E78724" d="M99.958,95.852c-0.494-1.357-2.223-6.855-2.777-11.857c-0.666-5.992-0.424-14.758-0.424-14.758
		s1.482,5.744,2.777,6.676c1.299,0.926,3.707,7.225,3.707,7.225s1.291,9.381,1.904,12.531
		C103.446,96.006,102.019,95.004,99.958,95.852z"/>
	<path fill="#E78724" d="M113.384,58.677c0,0-3.148-1.111-4.074-7.967c-0.928-6.857,1.109-12.787,1.109-12.787
		s-0.186,9.451,0.928,11.305c1.111,1.854,2.037,2.408,3.336,4.816C115.979,56.456,114.124,57.935,113.384,58.677z"/>
	<path fill="#87CCEE" d="M96.669,27.188"/>
	<path fill="#FDC168" d="M109.622,14.188l0.646-0.406C112.163,13.845,109.622,14.188,109.622,14.188z"/>
	<path fill="#FBA919" d="M85.903,17.788c0,0,2.967-0.494,4.449-2.717c1.48-2.225,5.682-6.672,12.377-6.721
		c6.693-0.051,13.316,1.779,13.316,1.779l-5.779,3.65c-0.613-0.02-1.684-0.01-3.451,0.049c-7.254,0.24-8.371,7.418-8.371,7.418
		l-25.57-3.521"/>
	<path fill="#FFFFFF" d="M83.437,57.427c0,0,3.459,3.459,8.77,2.346c5.314-1.111,8.525-3.459,8.773-7.535
		c0.246-4.076-1.111-5.682-1.111-5.682s-5.932,1.854-8.77,4.324C88.253,53.351,86.153,57.304,83.437,57.427z"/>
	<path fill="#C9C9C9" d="M87.62,56.19c0,0,3,1.371,6.355,0.256c4.391-1.465,4.682-6.029,4.682-6.029s2.693,7.902-4.857,9.422
		c-6.055,1.223-9.637-2.287-9.637-2.287L87.62,56.19z"/>
	<path fill="#463014" d="M84.171,100.482"/>
	<path fill="#463014" d="M107.231,26.435c2.445-2.029,0.625-3.914,0.816-6.221c0.105-1.229,0.201-2.385,0.605-3.025
		c2.252-3.555,7.562-4.633,7.619-4.645l2.494-0.49l-1.652-1.93c-0.213-0.25-6.992-6.717-17.482-3.33
		c-7.334,2.367-12.766,10.391-12.967,10.715l3.678,1.729c0.047-0.066,4.34-7.609,10.635-9.641c5.088-1.643,9.775-0.08,11.785,0.943
		c-2.135,0.854-4.928,2.404-6.609,5.062c-0.793,1.254-0.926,2.834-1.055,4.363c-0.172,2.021-0.332,3.936-1.822,5.174L107.231,26.435
		z"/>
	<path fill="#463014" d="M113.769,56.071c0,0-3.082-3.822-3.994-11.262c-0.359-2.932,0.273-8.711,1.295-10.934
		c-0.188,5.467,1.205,10.934,1.205,10.934S113.21,54.96,113.769,56.071z"/>
	<path fill="#463014" d="M97.513,22.573c0.002-0.008,0.986-4.322,3.729-6.504c3.861-3.07,8.578-1.438,8.623-1.424l0.686-2.113
		c-0.229-0.074-5.617-1.773-10.588,1.719c-4.998,3.514-5.596,6.695-5.648,7.047L97.513,22.573z"/>
	<path fill="#463014" d="M104.085,53.331c0,0,1.617-2.316,1.324-4.863c-0.143-1.258-0.725-2.549-1.766-3.006
		c-1.936-0.85-2.791,1.342-2.791,1.342S103.575,47.474,104.085,53.331z"/>
	<path fill="#463014" d="M84.171,100.482"/>
	<path fill="#463014" d="M86.325,56.858c-0.068,0.127-0.104,0.197-0.104,0.197s5.045,3.785,10.215-0.057
		c2.771-2.059,2.508-7.15,1.658-9.311c-2.203,0.5-4.074,1.4-5.637,2.453c1.975-1.764,3.703-3.062,3.697-3.092l2.248-0.637
		l4.363-1.494c0.057,0.332,1.645,7.793-2.949,12.877c-2.035,2.254-11.584,7.304-16.115-1.328L86.325,56.858z"/>
	<path fill="#463014" d="M86.796,57.415c-2.84,4.322-10.006,1.854-9.881-2.719c0,0,4.787,2.643,9.02-2.225
		c2.471-2.84,10.387-10.674,21.117-8.07C99.642,46.032,89.825,52.804,86.796,57.415z"/>
	<g>
		<path fill="#463014" d="M84.171,100.482"/>
	</g>
	<path fill="#463014" d="M108.058,69.613c-0.686,0.395-3.098,2.891-3.098,6.623c-0.002,1.873,0.188,11.273,1.113,17.02
		c-1.393,0.906-2.365,1.098-3.752,2.021c-0.695-6.654-1.193-16.297-0.961-20.189c0.266-4.438,2.641-7.414,4.844-8.686
		c0.689-0.396,1.412-0.785,2.139-1.178c3.773-2.039,7.678-4.149,7.678-7.751c0-2.816-1.098-3.697-2.256-4.631l-0.123-0.104
		c-0.771-0.621-1.645-1.326-2.156-2.484c-1.408-3.164-1.643-11.229-0.002-13.273c0.814-1.021,3.006-4.451,2.377-6.756
		c-0.24-0.879-0.795-1.531-1.697-1.994c-0.955-0.486-2.242-0.734-3.83-0.734c-3.117,0-6.576,0.947-8.357,1.514
		c-6.373,2.02-14.066,7.846-16.271,9.584c-0.062,0.047-0.104,0.076-0.105,0.082l-1.412,0.979l0.883-1.477
		c0.057-0.092,5.643-9.281,15.635-12.65c1.945-0.654,5.764-1.756,9.518-1.756c2.234,0,4.129,0.393,5.631,1.16
		c1.832,0.936,3.07,2.428,3.586,4.316c1.264,4.629-2.848,9.781-2.986,9.945c-0.48,0.855-0.684,7.068,0.424,9.557
		c0.15,0.344,0.566,0.68,1.1,1.107c0.166,0.133,0.35,0.271,0.547,0.42c1.561,1.18,3.922,2.961,3.922,7.064
		c0,5.618-5.691,8.663-10.268,11.112C109.419,68.857,108.7,69.24,108.058,69.613z"/>
	<path fill="#463014" d="M101.267,25.774c-0.906-1.535-3.223-4.496-8.559-7.098c-5.957-2.902-12.85-4.377-20.492-4.379v-0.002
		c0,0-0.01,0-0.014,0c0,0-0.013,0-0.017,0l0,0c-7.644,0.004-14.537,1.477-20.492,4.381c-5.338,2.602-7.651,5.562-8.559,7.096
		l-0.389,0.516l4.57,1.018l0.145-0.184l0.076-0.168c0.07-0.301,0.684-1.934,5.777-4.416c5.449-2.656,11.801-4.006,18.883-4.008
		c7.081,0.002,13.435,1.352,18.882,4.008c5.094,2.482,5.709,4.115,5.777,4.416l0.076,0.168l0.145,0.184l4.57-1.018L101.267,25.774z"
		/>
	<g>
		<g>
			<path fill="#463014" d="M107.231,26.435c2.445-2.029,0.625-3.914,0.816-6.221c0.105-1.229,0.201-2.385,0.605-3.025
				c2.252-3.555,7.562-4.633,7.619-4.645l2.494-0.49l-1.652-1.93c-0.213-0.25-6.992-6.717-17.482-3.33
				c-7.334,2.367-12.766,10.391-12.967,10.715l3.678,1.729c0.047-0.066,4.34-7.609,10.635-9.641
				c5.088-1.643,9.775-0.08,11.785,0.943c-2.135,0.854-4.928,2.404-6.609,5.062c-0.793,1.254-0.926,2.834-1.055,4.363
				c-0.172,2.021-0.332,3.936-1.822,5.174L107.231,26.435z"/>
		</g>
		<g>
			<path fill="#463014" d="M102.522,25.282l0.514-0.43c1.371-1.137,1.525-2.973,1.689-4.924c0.135-1.57,0.27-3.195,1.109-4.523
				c1.547-2.439,3.994-3.969,6.012-4.879c-1.207-0.512-3.477-1.271-6.271-1.271c-1.547,0-3.055,0.232-4.486,0.695
				c-5.84,1.883-9.965,8.688-10.432,9.486l-0.178,0.277l-4.352-2.047l0.221-0.355c0.051-0.082,5.516-8.4,13.172-10.871
				c2.047-0.662,4.105-0.994,6.115-0.994c7.371,0,11.725,4.393,11.762,4.438l2.064,2.414l-3.115,0.609
				c-0.053,0.012-5.232,1.096-7.379,4.48c-0.354,0.564-0.449,1.676-0.551,2.859c-0.059,0.701,0.09,1.387,0.234,2.049
				c0.311,1.436,0.631,2.92-1.186,4.424l-0.156,0.133L102.522,25.282z"/>
		</g>
	</g>
	<g>
		<g>
			<path fill="#463014" d="M97.513,22.573c0.002-0.008,0.986-4.322,3.729-6.504c3.861-3.07,8.578-1.438,8.623-1.424l0.686-2.113
				c-0.229-0.074-5.617-1.773-10.588,1.719c-4.998,3.514-5.596,6.695-5.648,7.047L97.513,22.573z"/>
		</g>
		<g>
			<path fill="#463014" d="M93.901,21.534l0.043-0.289c0.055-0.367,0.68-3.695,5.803-7.299c2.107-1.48,4.633-2.264,7.303-2.264
				c2.025,0,3.455,0.445,3.613,0.496l0.354,0.113l-0.918,2.822l-0.354-0.117c-0.135-0.045-1.324-0.428-2.93-0.428
				c-2.053,0-3.852,0.602-5.344,1.791c-2.619,2.084-3.588,6.252-3.598,6.291l-0.096,0.428L93.901,21.534z M109.622,14.188
				l0.455-1.404c-0.537-0.137-1.627-0.357-3.027-0.357c-2.553,0-4.865,0.717-6.875,2.129c-4.203,2.955-5.209,5.625-5.438,6.514
				l2.521,1.006c0.33-1.174,1.424-4.441,3.75-6.295c1.605-1.273,3.613-1.949,5.807-1.949
				C108.077,13.831,109.097,14.048,109.622,14.188z"/>
		</g>
	</g>
	<path fill="#463014" d="M81.192,113.961c-1.908-2.039-3.039-4.236-3.312-4.912c-0.154-0.383-0.334-1.117,0.227-1.691
		c0.438-0.443,1.191-0.676,2.25-0.676h1.629c1.695,0,3.68,0,4.857,0.002l0.988,0.002c1.393,0,2.074,0.396,2.404,0.73
		c0.479,0.486,0.555,1.16,0.225,2.004c-0.885,2.256-2.889,4.098-3.48,4.609c-0.777,0.67-1.893,1.068-2.986,1.068l0,0
		C82.87,115.098,81.876,114.693,81.192,113.961z"/>
	<path fill="#463014" d="M82.847,57.669l3.949-0.254c0,0-1.01,1.781-1.664,4.084c-0.736,2.604,0.678,6.413,0.678,6.413
		S80.536,61.946,82.847,57.669z"/>
	<path fill="#E78724" d="M72.202,43.554c-2.521,0-5.806-0.068-8.271-1.84c0,0,3.229,5.656,8.267,5.656l0.004-0.715l0.004,0.715
		c5.039,0,8.268-5.656,8.268-5.656C78.007,43.485,74.722,43.554,72.202,43.554z"/>
	<path fill="#463014" d="M79.142,43.526c-2.527,1.529-4.785,2.061-6.938,2.107c-2.152-0.047-4.41-0.578-6.938-2.107
		c0,0,3.68,4.49,6.916,4.525v0.004c0.006,0,0.012-0.002,0.021-0.002c0.006,0,0.012,0.002,0.02,0.002v-0.004
		C75.456,48.017,79.142,43.526,79.142,43.526z"/>
	<g>
		<path fill="#463014" d="M87.78,125.535l-0.283-3.662c11.867-0.914,15.607-12.287,15.625-13.484h3.676
			C106.8,111.158,101.849,124.453,87.78,125.535z"/>
	</g>
	<path fill="#FFFFFF" d="M91.731,101.715c0.223-1.271,0.244-2.477-0.023-3.66c1.07-0.803,2.988-1.102,4.43-1.568
		c1.176-0.742,7.199,0.766,11.57-4.523c5.479-6.623,4.322-10.578,4.322-10.578c1.404,1.562,2.764,0.969,4.906,8.24
		s-1.01,12.346-6.877,17.438c-2.773,2.404-6.693,3.396-10.064,3.775c1.129-1.135-1.928-1.248-4.037-2.035
		c0.17-1.703-0.111-3.355-1.383-4.689c-0.764-0.801-1.75-1.279-2.77-1.66c-0.061-0.135-0.107-0.256-0.16-0.383
		C91.681,101.955,91.712,101.838,91.731,101.715z"/>
	<path fill="#C9C9C9" d="M95.985,108.754c0.123-0.355,0.213-0.719,0.303-1.086c0.102-0.4,0.586-1.535-0.014-0.24
		c0.152-0.332,0.254-0.674,0.328-1.018c9.506-0.012,17.773-6.537,16.176-20.258c1.244-1.652,2.988,3.33,2.988,3.33
		s4.758,13.816-7.531,19.174c-4.094,1.785-7.713,3.062-8.568,2.547c-1.777,0.363-3.385-0.877-3.982-1.693
		C95.794,109.26,95.899,109.01,95.985,108.754z"/>
	<path fill="#463014" d="M91.903,99.727c-0.014-1.158-0.252-2.281-0.812-3.396c-0.039-0.076-0.084-0.15-0.127-0.227
		c3.658-0.033,7.871-0.383,11.457-1.816c3.943-1.578,8.875-6.975,9.725-13.312c0,0,7.426,5.73,5.244,17.994
		c-2.051,11.518-11.688,15.27-22.678,15.906c-0.006-0.074,1.236-2.643,0.846-4.211c6.238,0.451,13.219-1.957,16.59-7.5
		c3.082-5.074,2.217-13.736,0.949-15.008C110.007,97.912,98.88,99.896,91.903,99.727z"/>
	<g>
		<path fill="#463014" d="M72.161,114.848"/>
		<path fill="#463014" d="M96.341,102.615c-1.311-1.42-3.727-3.111-9.295-3.111c0,0-10.553-0.006-14.825-0.01l0,0
			c-0.005,0-0.013,0-0.019,0c0,0-0.015,0-0.019,0l0,0c-4.272,0.004-14.828,0.01-14.828,0.01c-5.566,0-7.98,1.691-9.293,3.111
			c-1.916,2.062-2.215,4.938-0.892,8.531c3.519,9.561,8.462,19.273,25.011,19.287v0.002c0.008,0,0.012-0.002,0.021-0.002
			c0.006,0,0.012,0.002,0.019,0.002v-0.002c16.548-0.016,21.489-9.729,25.011-19.287C98.556,107.553,98.253,104.68,96.341,102.615z
			 M93.767,110.475c-1.678,4.803-6.182,16.424-21.562,16.443c-15.388-0.02-19.888-11.641-21.565-16.443
			c-0.927-2.662-0.855-4.633,0.219-5.855c0.731-0.84,2.418-1.84,6.259-1.84h4.012c2.959-0.004,6.677-0.008,11.076-0.008
			c4.398,0,8.117,0.004,11.074,0.008h4.012c3.842,0,5.525,1,6.26,1.84C94.62,105.842,94.692,107.812,93.767,110.475z"/>
	</g>
	<path fill="#463014" d="M90.753,92.74c1.979,5.805,6.018,10.502,6.018,10.502s-5.559-0.252-5.863-1.236
		c-0.225-0.725-5.016-11.939-6.855-25.076C85.778,79.771,90.583,92.244,90.753,92.74z"/>
</g>
<g id="gulp">
	<path fill="#E94B4B" d="M71.899,103.227c-7.664,0-13.584-1.152-16.434-1.838c-1.948-0.471-3.512-0.955-4.7-1.455l3.799,6.49
		l1.485,20.275c0,2.271,7.223,4.115,16.127,4.115c8.906,0,16.127-1.844,16.127-4.115l1.18-20.496l3.594-6.287
		c-1.193,0.504-2.77,0.996-4.742,1.473C85.487,102.074,79.563,103.227,71.899,103.227L71.899,103.227z"/>
	<path fill="#E94B4B" d="M92.942,37.248c-5.625,0.785-13.092,1.219-21.021,1.219s-15.395-0.434-21.022-1.219
		c-2.785-0.39-4.99-0.849-6.551-1.365c-0.373-0.121-1.004-0.332-1.611-0.666l3.484,32.074c0.162-0.553,0.344-1.104,0.543-1.654
		c0.408-1.125,0.883-2.227,1.42-3.303c0.536-1.076,1.123-2.094,1.754-3.053c0.633-0.955,1.307-1.837,2.02-2.645
		c0.714-0.805,1.445-1.498,2.197-2.077c0.752-0.58,1.51-1.033,2.276-1.361c0.766-0.325,1.525-0.487,2.275-0.487
		c0.865,0,1.703,0.234,2.512,0.709c0.809,0.474,1.564,1.24,2.27,2.299c0.16,0.236,0.262,0.476,0.305,0.717
		c0.043,0.242,0.064,0.472,0.064,0.686c0,0.506-0.121,0.906-0.363,1.199s-0.531,0.439-0.863,0.439c-0.305,0-0.588-0.16-0.85-0.482
		c-0.262-0.32-0.553-0.779-0.877-1.376c-0.305-0.541-0.641-0.933-1.006-1.175s-0.764-0.363-1.191-0.363
		c-0.666,0-1.377,0.275-2.133,0.828s-1.504,1.281-2.247,2.189c-0.741,0.906-1.453,1.941-2.135,3.107
		c-0.68,1.166-1.28,2.359-1.805,3.582c-0.521,1.225-0.938,2.43-1.246,3.617c-0.312,1.188-0.466,2.256-0.466,3.201
		c0,0.316,0.021,0.641,0.063,0.973s0.125,0.635,0.242,0.902c0.119,0.271,0.281,0.494,0.485,0.67
		c0.205,0.174,0.464,0.262,0.777,0.262c0.352,0,0.751-0.117,1.198-0.355c0.447-0.232,0.912-0.545,1.392-0.928
		c0.479-0.385,0.963-0.816,1.448-1.303c0.485-0.482,0.936-0.975,1.354-1.471c0.418-0.494,0.791-0.973,1.115-1.43
		c0.322-0.455,0.564-0.852,0.727-1.189l1.328-3.971c0.16-0.43,0.371-0.732,0.633-0.914c0.262-0.18,0.531-0.27,0.807-0.27
		c0.133,0,0.266,0.021,0.398,0.066c0.135,0.045,0.254,0.115,0.357,0.211c0.105,0.096,0.189,0.221,0.25,0.373
		c0.062,0.15,0.094,0.328,0.094,0.531c0,0.541-0.049,1.049-0.143,1.521c-0.096,0.473-0.217,0.936-0.365,1.387
		c-0.146,0.449-0.311,0.904-0.492,1.359c-0.18,0.457-0.357,0.932-0.527,1.43c-0.037,0.055-0.107,0.232-0.207,0.531
		s-0.221,0.674-0.363,1.123c-0.143,0.451-0.297,0.955-0.465,1.514c-0.166,0.557-0.338,1.127-0.514,1.705
		c-0.176,0.58-0.344,1.15-0.506,1.707c-0.162,0.559-0.307,1.061-0.436,1.514c-0.129,0.449-0.234,0.828-0.32,1.131
		c-0.086,0.307-0.139,0.484-0.158,0.543c-0.047,0.18-0.123,0.379-0.227,0.6c-0.105,0.221-0.229,0.43-0.371,0.625
		c-0.143,0.197-0.299,0.359-0.473,0.49c-0.17,0.129-0.346,0.193-0.527,0.193c-0.305,0-0.525-0.102-0.662-0.305
		c-0.141-0.201-0.208-0.574-0.208-1.115c0-0.078,0-0.158,0-0.236s0.005-0.162,0.014-0.252c0.01-0.182,0.08-0.52,0.213-1.016
		c0.135-0.496,0.293-1.055,0.479-1.682c0.188-0.625,0.387-1.273,0.6-1.943c0.215-0.67,0.406-1.27,0.578-1.799
		c-0.504,0.561-1.051,1.123-1.641,1.682c-0.59,0.559-1.194,1.059-1.813,1.502c-0.617,0.447-1.242,0.812-1.867,1.092
		c-0.629,0.281-1.232,0.424-1.812,0.424c-0.666,0-1.238-0.146-1.72-0.439c-0.087-0.053-0.169-0.113-0.25-0.172L49.1,97.494
		c0.504,1.264,10.01,4.375,22.54,4.375c12.539,0,22.047-3.113,22.543-4.377l2.783-24.176c-0.229,0.211-0.455,0.418-0.67,0.619
		c-0.799,0.74-1.553,1.383-2.262,1.916c-0.707,0.535-1.4,0.949-2.076,1.242s-1.396,0.439-2.168,0.439
		c-0.725,0-1.283-0.158-1.678-0.473c-0.396-0.316-0.592-0.748-0.592-1.303c0-0.047,0-0.088,0-0.127s0.006-0.09,0.016-0.146
		c0.037-0.336,0.188-0.727,0.441-1.164c0.258-0.439,0.564-0.896,0.928-1.369c0.361-0.473,0.746-0.951,1.156-1.438
		c0.406-0.484,0.787-0.941,1.133-1.379c0.348-0.432,0.637-0.828,0.865-1.188c0.227-0.361,0.342-0.652,0.342-0.879
		c0-0.137-0.049-0.242-0.145-0.322c-0.096-0.078-0.252-0.117-0.471-0.117c-0.381,0-0.771,0.1-1.178,0.295
		c-0.404,0.197-0.807,0.463-1.199,0.795c-0.395,0.332-0.779,0.715-1.156,1.143c-0.375,0.428-0.727,0.873-1.055,1.336
		c-0.328,0.461-0.627,0.926-0.898,1.393c-0.27,0.469-0.502,0.898-0.689,1.293c-0.061,0.125-0.139,0.301-0.244,0.523
		c-0.104,0.227-0.219,0.479-0.342,0.762c-0.123,0.281-0.254,0.572-0.395,0.869c-0.139,0.299-0.264,0.58-0.379,0.846
		c-0.111,0.266-0.215,0.5-0.305,0.709c-0.092,0.209-0.156,0.354-0.193,0.432c-0.047,0.104-0.127,0.293-0.234,0.574
		c-0.109,0.281-0.234,0.611-0.377,0.988c-0.139,0.379-0.289,0.777-0.445,1.193c-0.158,0.416-0.307,0.811-0.443,1.184
		c-0.137,0.371-0.26,0.697-0.363,0.979c-0.104,0.283-0.172,0.475-0.199,0.574c-0.096,0.293-0.207,0.568-0.336,0.828
		s-0.273,0.486-0.439,0.686c-0.166,0.197-0.355,0.354-0.57,0.473s-0.453,0.178-0.721,0.178c-0.346,0-0.625-0.078-0.852-0.242
		c-0.223-0.162-0.334-0.479-0.334-0.939c0-0.227,0.027-0.455,0.084-0.691c0.059-0.234,0.129-0.471,0.215-0.701
		c0.084-0.23,0.176-0.455,0.266-0.676s0.174-0.432,0.248-0.635c0.518-1.127,1.037-2.256,1.568-3.389
		c0.533-1.133,1.043-2.254,1.535-3.363c0.104-0.229,0.193-0.457,0.295-0.688c-0.029,0.027-0.061,0.061-0.09,0.086
		c-0.617,0.6-1.232,1.125-1.848,1.582c-0.613,0.455-1.221,0.818-1.826,1.09c-0.604,0.271-1.191,0.404-1.762,0.404
		c-0.391,0-0.715-0.062-0.977-0.186c-0.264-0.125-0.473-0.293-0.627-0.508c-0.158-0.213-0.271-0.467-0.338-0.76
		c-0.021-0.102-0.035-0.205-0.053-0.311c-0.166,0.129-0.334,0.256-0.504,0.377c-0.59,0.416-1.17,0.752-1.742,1.006
		c-0.568,0.252-1.084,0.381-1.539,0.381c-0.457,0-0.828-0.152-1.113-0.455c-0.285-0.307-0.428-0.824-0.428-1.559
		c0-0.52,0.076-1.121,0.229-1.809c-0.248,0.439-0.555,0.887-0.926,1.334c-0.371,0.451-0.795,0.863-1.271,1.234
		s-1.008,0.674-1.598,0.904c-0.59,0.229-1.23,0.346-1.926,0.346c-0.314,0-0.617-0.039-0.906-0.117
		c-0.291-0.08-0.545-0.215-0.764-0.406c-0.221-0.189-0.395-0.445-0.527-0.77c-0.133-0.32-0.199-0.725-0.199-1.209
		c0-0.01,0.018-0.182,0.057-0.516c0.037-0.332,0.158-0.855,0.363-1.57s0.521-1.643,0.949-2.779c0.428-1.139,1.031-2.518,1.811-4.141
		c0.201-0.428,0.432-0.736,0.693-0.922c0.262-0.188,0.545-0.277,0.848-0.277c0.135,0,0.271,0.018,0.414,0.059
		c0.145,0.039,0.275,0.102,0.4,0.188c0.123,0.082,0.223,0.191,0.299,0.32s0.115,0.277,0.115,0.445c0,0.113-0.016,0.221-0.043,0.322
		c-0.049,0.191-0.152,0.441-0.307,0.754c-0.158,0.309-0.342,0.662-0.551,1.062c-0.209,0.398-0.43,0.83-0.664,1.293
		c-0.232,0.461-0.447,0.938-0.646,1.438c-0.199,0.494-0.373,1-0.514,1.514c-0.145,0.512-0.227,1.01-0.242,1.494
		c0,0.203,0.047,0.389,0.143,0.557c0.094,0.17,0.25,0.254,0.469,0.254c0.619,0,1.207-0.203,1.771-0.605
		c0.561-0.406,1.078-0.91,1.555-1.516c0.475-0.602,0.904-1.25,1.289-1.941c0.385-0.693,0.707-1.326,0.963-1.9
		c0.184-0.385,0.34-0.795,0.48-1.232c0.137-0.439,0.287-0.846,0.449-1.217c0.16-0.373,0.348-0.682,0.557-0.932
		c0.209-0.246,0.471-0.371,0.783-0.371c0.344,0,0.613,0.131,0.812,0.389c0.199,0.26,0.301,0.568,0.301,0.93
		c0,0.203-0.064,0.48-0.191,0.836c-0.129,0.355-0.291,0.762-0.486,1.219c-0.191,0.457-0.406,0.941-0.635,1.463
		c-0.227,0.52-0.439,1.043-0.633,1.578c-0.197,0.535-0.357,1.059-0.486,1.57c-0.129,0.514-0.193,0.988-0.193,1.43
		c0,0.404,0.213,0.607,0.631,0.607c0.295,0,0.658-0.102,1.098-0.305c0.438-0.203,0.895-0.488,1.377-0.854
		c0.121-0.092,0.242-0.189,0.361-0.287c0.133-0.553,0.291-1.064,0.473-1.529c0.334-0.881,0.672-1.752,1.016-2.619
		c0.342-0.867,0.654-1.662,0.939-2.383l4.322-10.899c0.172-0.44,0.4-0.75,0.691-0.931c0.289-0.181,0.582-0.271,0.877-0.271
		s0.562,0.096,0.809,0.287c0.24,0.191,0.361,0.503,0.361,0.931c0,0.202-0.039,0.416-0.121,0.642
		c-0.078,0.227-0.184,0.469-0.307,0.728c-0.238,0.53-0.521,1.179-0.852,1.942c-0.328,0.768-0.68,1.602-1.055,2.502
		c-0.377,0.902-0.762,1.84-1.156,2.814c-0.395,0.973-0.779,1.922-1.156,2.848c-0.375,0.924-0.727,1.799-1.055,2.627
		s-0.611,1.547-0.85,2.154c-0.105,0.26-0.207,0.561-0.307,0.904c-0.102,0.344-0.148,0.648-0.148,0.922
		c0,0.168,0.027,0.303,0.084,0.404c0.059,0.102,0.166,0.15,0.328,0.15c0.201,0,0.449-0.068,0.748-0.211
		c0.301-0.143,0.623-0.326,0.973-0.559c0.346-0.23,0.707-0.494,1.082-0.795c0.377-0.299,0.75-0.607,1.121-0.928
		c0.371-0.322,0.725-0.645,1.062-0.965c0.336-0.32,0.641-0.615,0.906-0.889c0.062-0.062,0.139-0.109,0.221-0.146
		c0.16-0.479,0.307-0.947,0.436-1.406c0.078-0.203,0.182-0.49,0.314-0.863c0.131-0.371,0.285-0.738,0.457-1.098
		c0.17-0.361,0.363-0.674,0.576-0.939c0.215-0.264,0.443-0.396,0.691-0.396c0.381,0,0.656,0.088,0.828,0.262
		c0.17,0.176,0.256,0.434,0.256,0.77c0,0.068-0.01,0.176-0.027,0.32c-0.021,0.148-0.041,0.303-0.07,0.467s-0.062,0.318-0.092,0.465
		c-0.035,0.146-0.064,0.254-0.096,0.32c0.354-0.383,0.732-0.764,1.143-1.141s0.832-0.719,1.27-1.021
		c0.439-0.307,0.887-0.555,1.344-0.744c0.453-0.191,0.91-0.287,1.365-0.287c0.314,0,0.625,0.043,0.938,0.135
		c0.309,0.09,0.586,0.223,0.828,0.396c0.238,0.176,0.438,0.395,0.592,0.66c0.152,0.264,0.227,0.57,0.227,0.92
		c0,0.461-0.113,0.955-0.35,1.479c-0.23,0.523-0.523,1.051-0.877,1.58c-0.354,0.527-0.732,1.045-1.141,1.547
		c-0.41,0.5-0.791,0.957-1.148,1.369c-0.357,0.41-0.656,0.76-0.9,1.047c-0.238,0.287-0.365,0.48-0.377,0.582
		c0,0.139,0.043,0.246,0.129,0.33c0.084,0.084,0.23,0.127,0.43,0.127c0.162,0,0.398-0.092,0.713-0.271
		c0.312-0.18,0.756-0.492,1.318-0.938c0.564-0.445,1.285-1.043,2.154-1.791c0.6-0.516,1.295-1.125,2.082-1.822l3.773-34.945
		c-0.607,0.336-1.238,0.547-1.611,0.668C97.935,36.399,95.729,36.858,92.942,37.248L92.942,37.248z"/>
	<path fill="#E94B4B" d="M80.183,35.178c-1.938,0-3.51-0.428-3.51-0.957c0-0.527,1.57-0.955,3.51-0.955s3.512,0.428,3.512,0.955
		C83.694,34.75,82.122,35.178,80.183,35.178L80.183,35.178z M71.923,28.877c-16.273,0-29.464,1.842-29.464,4.115
		c0,2.271,13.191,4.116,29.464,4.116c16.271,0,29.463-1.845,29.463-4.116C101.386,30.719,88.194,28.877,71.923,28.877L71.923,28.877
		z"/>
	<g>
		<g>
			<g>
				<defs>
					<rect id="SVGID_10_" x="42.416" width="59.013" height="130.814"/>
				</defs>
				<clipPath id="SVGID_11_">
					<use xlink:href="#SVGID_10_"  overflow="visible"/>
				</clipPath>
				<path clip-path="url(#SVGID_11_)" fill="#E94B4B" d="M83.606,33.885c0,0.342-1.264,0.617-2.824,0.617
					c-1.559,0-2.824-0.275-2.824-0.617s1.268-0.619,2.824-0.619C82.343,33.266,83.606,33.543,83.606,33.885L83.606,33.885z"/>
			</g>
		</g>
		<g>
			<g>
				<defs>
					<rect id="SVGID_12_" x="42.416" width="59.013" height="130.814"/>
				</defs>
				<clipPath id="SVGID_13_">
					<use xlink:href="#SVGID_12_"  overflow="visible"/>
				</clipPath>
				<path clip-path="url(#SVGID_13_)" fill="#E94B4B" d="M101.991,3.406c-0.316,0.355-1.422-0.111-2.469-1.046
					c-1.045-0.933-1.762-1.881-1.424-2.219c0.35-0.354,1.479-0.039,2.525,0.894C101.671,1.969,102.3,3.055,101.991,3.406
					L101.991,3.406z"/>
			</g>
		</g>
	</g>
	<polygon fill="#E94B4B" points="101.991,3.406 98.099,0.143 82.429,16.629 77.96,33.885 83.606,33.885 87.298,18.918 	"/>
</g>
<g id="html5">
	<polygon fill="#F15045" points="28.031,114.402 18.204,4.165 126.202,4.165 116.362,114.387 72.139,126.648 	"/>
	<polygon opacity="0.18" fill="#FFFFFF" enable-background="new    " points="72.202,117.275 107.94,107.367 116.351,13.179 
		72.202,13.179 	"/>
	<polygon fill="#E9E9E9" points="72.202,54.065 54.312,54.065 53.077,40.22 72.202,40.22 72.202,26.699 72.156,26.699 38.3,26.699 
		38.624,30.327 41.947,67.584 72.202,67.584 	"/>
	<polygon fill="#E9E9E9" points="72.202,89.178 72.145,89.193 57.087,85.127 56.124,74.346 48.807,74.346 42.551,74.346 
		44.445,95.574 72.143,103.262 72.202,103.244 	"/>
	<polygon fill="#FFFFFF" points="72.156,54.065 72.156,67.584 88.804,67.584 87.235,85.119 72.156,89.189 72.156,103.256 
		99.872,95.574 100.077,93.289 103.253,57.695 103.583,54.065 99.94,54.065 	"/>
	<polygon fill="#FFFFFF" points="72.156,26.699 72.156,35.097 72.156,40.188 72.156,40.22 104.772,40.22 104.772,40.22 
		104.815,40.22 105.085,37.182 105.702,30.327 106.024,26.699 	"/>
</g>
<g id="javascript">
	<rect x="10.203" y="3.907" fill="#F1DD3F" width="124.001" height="122.999"/>
	<g>
		<path d="M74.507,66.395h6.303v32.301c0,12.816-6.303,16.752-14.613,16.752c-2.361,0-5.154-0.5-6.659-1.143l0.862-5.084
			c1.289,0.502,3.149,0.932,5.295,0.932c5.586,0,8.812-2.506,8.812-11.959V66.395z"/>
		<path d="M90.421,107.074c2.793,1.785,6.805,3.148,11.104,3.148c6.373,0,10.1-3.363,10.1-8.234c0-4.441-2.582-7.09-9.098-9.527
			c-7.879-2.861-12.748-7.021-12.748-13.75c0-7.518,6.229-13.104,15.611-13.104c4.869,0,8.525,1.146,10.602,2.361l-1.721,5.084
			c-1.504-0.932-4.729-2.291-9.098-2.291c-6.59,0-9.098,3.936-9.098,7.236c0,4.508,2.938,6.729,9.6,9.309
			c8.164,3.148,12.246,7.09,12.246,14.182c0,7.445-5.439,13.959-16.83,13.959c-4.652,0-9.738-1.428-12.314-3.146L90.421,107.074z"/>
	</g>
</g>
<g id="jquery">
	<path fill="#0071BA" d="M23.653,26.742c-0.318,0,2.516-4.354,2.196-4.354C5.113,42.457,6.912,69.328,16.884,88.643
		c6.954,13.473,19.684,26.086,34.819,32.885c7.011,3.145,17.748,6.035,29.015,5.805c24.102-0.502,41-11.896,50.537-30.467
		l0.561-1.451c-8.416,8.482-22.129,14.371-32.885,15.477C54.178,115.477,8.141,75.385,23.084,28.6L23.653,26.742z"/>
	<path fill="#0071BA" d="M134.716,63.494c-6.963,7.389-18.727,12.652-29.982,12.574c-25.176-0.164-53.465-22.72-50.293-54.164
		c0.271-2.707,1.354-6.952,4.256-12.457C50.349,19.97,45.282,28.646,46.703,43.182c1.944,19.974,20.815,39.908,40.62,42.558
		C110.981,88.902,128.624,78.961,134.716,63.494"/>
	<path fill="#0071BA" d="M133.585,37.011c-15.107,10.283-24.48,6.839-28.92,5.533c-0.977-0.279-3.24-1.295-5.35-2.562
		c-4.682-2.814-6.994-4.102-10.639-9.4c-2.004-2.912-4.004-7.535-4.662-10.186c-1.082-4.383-0.783-11.122,1.277-16.926
		c-6.84,6.103-7.896,17.893-5.602,25.689c0.289,0.983,1.914,4.864,2.795,6.285c5.908,9.508,17.195,17.863,34.818,14.109
		C121.757,48.609,131.835,41.027,133.585,37.011"/>
</g>
<g id="laravel">
	<path fill="#F15045" d="M87.917,104.16c0.971,1.398,1.562,1.291,2.314,0.969c0.754-0.322,39.504-13.402,40.688-13.832
		c1.186-0.432,0.809-0.809,0.432-1.4c-0.375-0.592-13.293-18.137-13.939-19.16c-0.645-1.021-0.969-0.807-1.99-0.482l-41.08,10.686
		C74.341,80.939,86.948,102.76,87.917,104.16L87.917,104.16z"/>
	<path fill="#F15045" d="M134.204,86.293V65.756c-4.621,1.23-10.469,2.787-12.773,3.4C124.911,73.814,130.354,81.104,134.204,86.293
		L134.204,86.293z"/>
	<path fill="#F15045" d="M121.39,43.861c-0.633,0.145-14.65,2.678-15.516,2.793c-0.861,0.114-0.576,0.604-0.229,1.093l12.336,16.926
		c0,0,15.084-3.742,16.006-3.943c0.074-0.016,0.146-0.033,0.219-0.051v-2.242c-2.742-3.478-10.211-12.942-10.855-13.828
		C122.569,43.545,122.022,43.717,121.39,43.861L121.39,43.861z"/>
	<path fill="#F15045" d="M33.186,17.274c3.035-0.138,3.312,0.553,4.646,2.53l33.505,56.018l42.131-10.094
		c-2.334-3.307-12.932-18.332-13.955-19.765c-1.152-1.612,0.027-2.36,1.898-2.677c1.873-0.316,17.992-3.022,19.373-3.224
		c1.383-0.201,2.477-0.69,4.721,2.016c1.148,1.384,5.043,6.233,8.699,10.779V26.655c0-6.404-2.275-11.881-6.822-16.429
		c-4.549-4.548-10.023-6.822-16.43-6.822H33.45c-6.405,0-11.881,2.274-16.43,6.822c-2.608,2.608-4.465,5.523-5.578,8.743
		C19.037,18.345,31.061,17.372,33.186,17.274L33.186,17.274z"/>
	<path fill="#F15045" d="M91.716,111.699c-3.551,1.076-5.145,1.609-7.459-1.619c-1.732-2.42-11.104-19.301-15.699-27.623
		c-8.697,2.279-24.616,6.434-29.206,7.535c-4.479,1.078-6.393-1.609-7.129-3.264C31.708,85.566,18.574,57.249,10.2,39.08v65.081
		c0,6.404,2.273,11.881,6.822,16.428c4.547,4.549,10.023,6.822,16.429,6.822h77.503c6.404,0,11.881-2.273,16.43-6.822
		c4.547-4.547,6.822-10.023,6.822-16.428v-7.646C124.69,99.994,94.11,110.973,91.716,111.699L91.716,111.699z"/>
	<path fill="#F15045" d="M39.461,83.471c1.26-0.289,24.856-5.936,25.36-6.043c0.504-0.109,0.826-0.398,0.287-1.332
		C64.569,75.16,33.655,21.8,33.655,21.8c-0.285-0.49-0.204-0.653-0.979-0.613c-0.69,0.037-18.183,1.598-22.233,1.937
		c-0.119,0.842-0.19,1.703-0.223,2.582c4.111,8.416,27.707,57.081,27.84,57.477C38.204,83.613,38.203,83.758,39.461,83.471
		L39.461,83.471z"/>
</g>
<g id="mysql">
	<path fill="#0071BA" d="M125.593,99.441c-6.9-0.174-12.246,0.516-16.73,2.414c-1.295,0.516-3.357,0.516-3.535,2.152
		c0.693,0.689,0.775,1.811,1.387,2.764c1.031,1.725,2.838,4.049,4.479,5.26c1.811,1.379,3.621,2.756,5.521,3.961
		c3.359,2.078,7.156,3.279,10.426,5.352c1.904,1.205,3.795,2.758,5.697,4.053c0.947,0.689,1.545,1.812,2.756,2.238v-0.26
		c-0.607-0.773-0.777-1.895-1.377-2.762c-0.861-0.857-1.725-1.639-2.588-2.496c-2.504-3.361-5.609-6.291-8.967-8.707
		c-2.762-1.9-8.801-4.488-9.916-7.67c0,0-0.09-0.092-0.174-0.176c1.896-0.176,4.143-0.865,5.951-1.391
		c2.928-0.771,5.6-0.6,8.617-1.373c1.383-0.346,2.762-0.779,4.146-1.205v-0.777c-1.562-1.551-2.678-3.625-4.312-5.088
		c-4.396-3.793-9.229-7.496-14.229-10.607c-2.68-1.725-6.125-2.84-8.975-4.309c-1.029-0.521-2.752-0.775-3.357-1.645
		c-1.555-1.895-2.418-4.395-3.537-6.639c-2.496-4.738-4.916-9.996-7.068-15.005c-1.551-3.36-2.502-6.72-4.396-9.827
		C76.524,33.04,66.872,24.163,52.04,15.452c-3.188-1.814-6.984-2.589-11.033-3.539c-2.16-0.089-4.312-0.257-6.469-0.341
		c-1.384-0.606-2.765-2.245-3.971-3.022C25.651,5.445,12.981-1.279,9.356,7.603c-2.326,5.607,3.451,11.125,5.436,13.971
		c1.463,1.979,3.363,4.227,4.394,6.465c0.604,1.469,0.776,3.021,1.383,4.572c1.379,3.795,2.67,8.019,4.483,11.556
		c0.947,1.812,1.98,3.712,3.188,5.342c0.695,0.956,1.897,1.38,2.158,2.938c-1.203,1.72-1.297,4.308-1.986,6.466
		c-3.102,9.746-1.896,21.816,2.502,28.97c1.377,2.156,4.656,6.898,9.057,5.086c3.879-1.551,3.018-6.465,4.139-10.771
		c0.258-1.043,0.084-1.729,0.603-2.416v0.176c1.203,2.41,2.414,4.732,3.535,7.156c2.678,4.219,7.33,8.619,11.212,11.547
		c2.064,1.559,3.703,4.227,6.291,5.178v-0.26h-0.172c-0.518-0.773-1.291-1.121-1.982-1.723c-1.553-1.555-3.271-3.451-4.486-5.176
		c-3.619-4.826-6.813-10.176-9.653-15.691c-1.384-2.68-2.586-5.609-3.709-8.281c-0.517-1.029-0.517-2.586-1.38-3.102
		c-1.299,1.895-3.188,3.537-4.137,5.854c-1.639,3.713-1.811,8.281-2.418,13.027c-0.346,0.09-0.172,0-0.346,0.17
		c-2.754-0.689-3.703-3.533-4.742-5.939c-2.586-6.131-3.021-15.959-0.775-23.031c0.603-1.809,3.195-7.499,2.156-9.223
		c-0.521-1.646-2.244-2.585-3.191-3.884c-1.119-1.639-2.332-3.704-3.102-5.518c-2.07-4.828-3.111-10.178-5.347-15.004
		c-1.035-2.244-2.85-4.574-4.311-6.64c-1.644-2.33-3.449-3.967-4.746-6.724c-0.428-0.951-1.033-2.504-0.346-3.533
		c0.17-0.692,0.52-0.953,1.211-1.129c1.114-0.944,4.311,0.259,5.428,0.777c3.193,1.289,5.865,2.502,8.537,4.311
		c1.207,0.865,2.502,2.502,4.051,2.938h1.813c2.76,0.598,5.865,0.168,8.455,0.947c4.564,1.465,8.703,3.619,12.414,5.948
		c11.291,7.155,20.604,17.335,26.897,29.491c1.037,1.979,1.471,3.794,2.418,5.858c1.811,4.232,4.055,8.544,5.861,12.679
		c1.811,4.055,3.539,8.188,6.127,11.559c1.291,1.807,6.467,2.756,8.795,3.705c1.721,0.771,4.396,1.465,5.949,2.41
		c2.934,1.809,5.855,3.881,8.623,5.867C121.021,95.559,125.333,97.711,125.593,99.441"/>
	<path fill="#0071BA" d="M37.641,24.504c-1.464,0-2.494,0.174-3.535,0.433v0.172h0.17c0.694,1.379,1.901,2.332,2.76,3.537
		c0.693,1.381,1.297,2.758,1.986,4.135c0.086-0.082,0.168-0.172,0.168-0.172c1.215-0.858,1.817-2.239,1.817-4.312
		c-0.521-0.606-0.604-1.206-1.037-1.812C39.455,25.626,38.332,25.197,37.641,24.504"/>
</g>
<polygon id="node" fill="#3AB780" points="16.703,33.447 72.203,1.488 127.704,33.447 127.704,97.367 72.203,129.326 16.703,97.367 
	"/>
<g id="php">
	
		<radialGradient id="SVGID_14_" cx="510.9424" cy="710.8877" r="87.8766" gradientTransform="matrix(1 0 0 1 -465.4805 -668.3066)" gradientUnits="userSpaceOnUse">
		<stop  offset="0" style="stop-color:#FFFFFF"/>
		<stop  offset="0.5" style="stop-color:#4C6B96"/>
		<stop  offset="1" style="stop-color:#231F20"/>
	</radialGradient>
	<ellipse fill="url(#SVGID_14_)" cx="72.204" cy="65.407" rx="66.92" ry="35.204"/>
	<ellipse fill="#6180B5" cx="72.204" cy="65.407" rx="64.307" ry="32.589"/>
	<g>
		<path fill="#FFFFFF" d="M84.991,78.557l3.189-16.416c0.721-3.707,0.121-6.47-1.777-8.215c-1.842-1.689-4.965-2.513-9.551-2.513
			h-5.523l1.58-8.134c0.059-0.308-0.021-0.625-0.221-0.864c-0.199-0.241-0.496-0.382-0.807-0.382h-7.625
			c-0.5,0-0.932,0.354-1.025,0.847l-3.387,17.429c-0.309-1.961-1.066-3.647-2.283-5.038c-2.234-2.561-5.772-3.858-10.513-3.858
			H32.27c-0.501,0-0.931,0.354-1.025,0.846l-6.856,35.279c-0.06,0.307,0.021,0.623,0.22,0.863c0.198,0.242,0.494,0.381,0.808,0.381
			H33.1c0.501,0,0.931-0.355,1.027-0.844l1.658-8.533h5.72c3.002,0,5.523-0.326,7.493-0.967c2.014-0.656,3.864-1.768,5.5-3.295
			c1.317-1.215,2.409-2.568,3.249-4.035l-1.369,7.051c-0.062,0.307,0.02,0.623,0.219,0.863s0.494,0.383,0.807,0.383h7.625
			c0.5,0,0.932-0.355,1.025-0.85l3.762-19.365h5.232c2.229,0,2.883,0.445,3.059,0.635c0.162,0.175,0.496,0.789,0.121,2.724
			l-3.035,15.607c-0.059,0.307,0.021,0.623,0.221,0.863c0.197,0.24,0.494,0.383,0.809,0.383h7.744
			C84.466,79.404,84.897,79.049,84.991,78.557z M49.644,64.99c-0.479,2.463-1.381,4.219-2.682,5.221
			c-1.322,1.018-3.438,1.533-6.285,1.533h-3.404l2.461-12.673h4.403c3.235,0,4.539,0.691,5.062,1.271
			C49.924,61.146,50.08,62.754,49.644,64.99z"/>
		<path fill="#FFFFFF" d="M117.597,55.271c-2.236-2.561-5.773-3.858-10.514-3.858H92.304c-0.5,0-0.93,0.354-1.025,0.846
			l-6.855,35.279c-0.061,0.307,0.021,0.623,0.221,0.863c0.199,0.242,0.494,0.381,0.807,0.381h7.688c0.5,0,0.93-0.355,1.025-0.844
			l1.658-8.533h5.721c3.004,0,5.523-0.326,7.492-0.967c2.014-0.656,3.865-1.768,5.5-3.295c1.361-1.254,2.482-2.658,3.332-4.18
			c0.85-1.516,1.459-3.211,1.812-5.033C120.55,61.436,119.851,57.85,117.597,55.271z M109.628,64.99
			c-0.48,2.463-1.383,4.219-2.684,5.221c-1.322,1.018-3.438,1.533-6.285,1.533h-3.406l2.465-12.673h4.402
			c3.234,0,4.537,0.691,5.061,1.271C109.907,61.146,110.062,62.754,109.628,64.99z"/>
	</g>
	<g>
		<path fill="#000004" d="M44.164,58.024c2.92,0,4.865,0.539,5.839,1.617c0.972,1.078,1.203,2.927,0.694,5.55
			c-0.53,2.729-1.555,4.68-3.07,5.848c-1.516,1.166-3.825,1.75-6.922,1.75h-4.676L38.9,58.024H44.164z M25.439,87.736h7.686
			l1.821-9.379h6.583c2.904,0,5.295-0.307,7.17-0.916s3.58-1.633,5.115-3.068c1.287-1.186,2.33-2.49,3.126-3.918
			s1.363-3.002,1.699-4.727c0.812-4.182,0.199-7.437-1.84-9.77c-2.037-2.334-5.281-3.501-9.726-3.501H32.295L25.439,87.736z"/>
		<path fill="#000004" d="M64.284,43.079h7.625l-1.824,9.379h6.795c4.273,0,7.219,0.747,8.842,2.235
			c1.623,1.49,2.109,3.907,1.461,7.247l-3.191,16.418h-7.742l3.029-15.609c0.35-1.777,0.223-2.988-0.379-3.634
			c-0.6-0.645-1.875-0.969-3.826-0.969h-6.092l-3.926,20.212h-7.627L64.284,43.079z"/>
		<path fill="#000004" d="M104.147,58.024c2.918,0,4.865,0.539,5.838,1.617c0.975,1.078,1.203,2.927,0.695,5.55
			c-0.533,2.729-1.555,4.68-3.07,5.848c-1.518,1.166-3.822,1.75-6.924,1.75h-4.674l2.869-14.765H104.147z M85.423,87.736h7.684
			l1.824-9.379h6.582c2.904,0,5.295-0.307,7.17-0.916s3.58-1.633,5.113-3.068c1.289-1.186,2.33-2.49,3.129-3.918
			c0.795-1.428,1.363-3.002,1.697-4.727c0.811-4.182,0.197-7.437-1.84-9.77c-2.037-2.334-5.279-3.501-9.729-3.501H92.276
			L85.423,87.736z"/>
	</g>
</g>
<g id="sass">
	<path fill="#CB6698" d="M72.202,2.971c34.482,0,62.438,27.953,62.438,62.435c0,34.484-27.953,62.438-62.438,62.438
		c-34.481,0-62.435-27.953-62.435-62.438C9.767,30.924,37.721,2.971,72.202,2.971L72.202,2.971L72.202,2.971z"/>
	<path fill="#FFFFFF" d="M59.796,86.205c0.908,3.361,0.811,6.494-0.131,9.332c-0.104,0.314-0.219,0.627-0.344,0.934
		c-0.123,0.309-0.26,0.613-0.404,0.914c-0.723,1.5-1.691,2.906-2.883,4.203c-3.627,3.957-8.697,5.453-10.87,4.193
		c-2.348-1.361-1.172-6.941,3.033-11.387c4.525-4.783,11.036-7.859,11.036-7.859l-0.01-0.021
		C59.411,86.416,59.604,86.312,59.796,86.205L59.796,86.205z M111.366,29.694c-2.826-11.089-21.213-14.734-38.615-8.552
		c-10.354,3.679-21.567,9.453-29.627,16.993c-9.584,8.965-11.112,16.768-10.482,20.028c2.223,11.504,17.985,19.024,24.467,24.604
		v0.033c-1.912,0.941-15.898,8.018-19.17,15.254c-3.453,7.635,0.549,13.111,3.199,13.85c8.213,2.283,16.639-1.824,21.167-8.58
		c4.369-6.518,4.008-14.936,2.105-19.121c2.621-0.691,5.674-1,9.557-0.549c10.951,1.279,13.102,8.117,12.689,10.979
		c-0.41,2.863-2.707,4.439-3.479,4.912c-0.768,0.477-1.002,0.641-0.938,0.992c0.094,0.514,0.449,0.494,1.104,0.385
		c0.902-0.15,5.752-2.328,5.959-7.609c0.266-6.709-6.164-14.211-17.545-14.018c-4.688,0.082-7.635,0.527-9.764,1.318
		c-0.158-0.178-0.318-0.357-0.484-0.533c-7.036-7.508-20.042-12.818-19.491-22.91c0.2-3.669,1.477-13.33,24.993-25.049
		c19.268-9.601,34.689-6.958,37.355-1.104c3.807,8.364-8.242,23.91-28.25,26.152c-7.623,0.854-11.635-2.101-12.633-3.2
		c-1.053-1.158-1.209-1.21-1.602-0.993c-0.639,0.354-0.234,1.377,0,1.986c0.598,1.556,3.049,4.312,7.229,5.682
		c3.676,1.207,12.625,1.869,23.449-2.316C104.683,53.642,114.149,40.599,111.366,29.694L111.366,29.694z"/>
</g>
<g id="ubuntu">
	<path fill="#DD4814" d="M134.782,65.406c0,34.561-28.018,62.578-62.578,62.578c-34.563,0-62.58-28.018-62.58-62.578
		S37.641,2.83,72.204,2.83C106.767,2.83,134.782,30.847,134.782,65.406z"/>
	<path fill="#FFFFFF" d="M29.652,57.052c-4.617,0-8.357,3.74-8.357,8.354c0,4.615,3.74,8.355,8.357,8.355
		c4.614,0,8.354-3.74,8.354-8.355C38.006,60.792,34.266,57.052,29.652,57.052z M89.306,95.025
		c-3.996,2.307-5.367,7.414-3.059,11.408c2.307,3.994,7.412,5.363,11.408,3.059s5.367-7.412,3.059-11.41
		C98.409,94.088,93.298,92.719,89.306,95.025z M47.799,65.406c0-8.255,4.102-15.549,10.377-19.967l-6.11-10.229
		c-7.309,4.886-12.748,12.353-15.008,21.098c2.637,2.152,4.326,5.428,4.326,9.101c0,3.67-1.689,6.945-4.326,9.1
		c2.258,8.746,7.695,16.213,15.008,21.1l6.11-10.23C51.901,80.959,47.799,73.664,47.799,65.406z M72.204,41.002
		c12.748,0,23.207,9.775,24.307,22.24l11.904-0.176c-0.586-9.203-4.605-17.465-10.783-23.541c-3.178,1.201-6.846,1.018-10.018-0.811
		c-3.178-1.834-5.17-4.927-5.715-8.284c-3.088-0.852-6.336-1.317-9.697-1.317c-5.773,0-11.234,1.355-16.084,3.757l5.805,10.401
		C65.048,41.818,68.53,41.002,72.204,41.002z M72.204,89.812c-3.674,0-7.156-0.816-10.279-2.271L56.12,97.943
		c4.848,2.4,10.309,3.76,16.084,3.76c3.359,0,6.609-0.467,9.695-1.32c0.545-3.357,2.539-6.447,5.715-8.283
		c3.174-1.832,6.842-2.014,10.018-0.812c6.178-6.074,10.199-14.338,10.783-23.541L96.509,67.57
		C95.411,80.039,84.952,89.812,72.204,89.812z M89.302,35.787c3.996,2.307,9.104,0.939,11.41-3.057
		c2.309-3.996,0.939-9.103-3.057-11.412c-3.996-2.305-9.104-0.936-11.412,3.062C83.938,28.374,85.31,33.482,89.302,35.787z"/>
</g>
<g id="vuejs">
	<path fill="#3AB780" d="M0,3.704c8.904-0.842,19.374-0.121,28.881-0.361c14.25,24.861,28.793,49.428,42.961,74.37
		c15.323-24.028,29.04-49.661,43.685-74.37c9.506,0.24,19.975-0.48,28.881,0.361c-24.162,41.059-48.025,82.419-71.843,123.827
		C47.594,87.039,24.557,44.61,0,3.704z"/>
	<path fill="#34495F" d="M28.881,3.343c8.905,0,17.811,0,26.715,0c5.453,9.588,10.869,19.215,16.607,28.52
		c5.737-9.305,11.153-18.93,16.606-28.52c8.902,0,17.811,0,26.715,0C100.88,28.05,87.165,53.683,71.84,77.711
		C57.674,52.769,43.131,28.204,28.881,3.343z"/>
	<path fill="#FFFFFF" d="M88.812,3.343c-5.453,9.59-10.869,19.215-16.606,28.52c-5.74-9.305-11.156-18.932-16.609-28.52
		C66.667,3.343,77.739,3.343,88.812,3.343z"/>
</g>
<g id="scrum">
	<path fill="#059AB7" d="M42.697,11.773c2.961-0.681,6.584-0.691,9.959-0.955C49.199,10.404,45.184,10.689,42.697,11.773z"/>
	<path fill="#059AB7" d="M50.918,20.215c-0.187-0.184-0.56-0.182-0.949-0.16C49.746,20.564,50.916,20.459,50.918,20.215z"/>
	<path fill="#059AB7" d="M41.591,21.488c0.562,0.281,1.445-0.295,2.055-0.478C42.883,21.092,41.936,20.986,41.591,21.488z"/>
	<path fill="#059AB7" d="M120.786,73.412c0,0.531,0,1.061,0,1.592C121.048,74.832,121.048,73.584,120.786,73.412z"/>
	<path fill="#059AB7" d="M87.274,107.816c-0.686,0-1.369,0-2.055,0C85.544,108.078,86.95,108.078,87.274,107.816z"/>
	<path fill="#059AB7" d="M83.954,30.09c0.016-0.553-0.658-1.236-0.314-1.593c0.58,0.052,1.398-0.136,1.738,0.159
		c0.025-0.187,0.289-0.133,0.475-0.159c-0.531-0.368-1.736-0.056-2.529-0.159c-3.346-7.407-9.229-13.105-16.439-16.086
		C74.474,16.248,79.737,23.199,83.954,30.09z"/>
	<path fill="#059AB7" d="M83.798,55.096c0-0.212,0-0.425,0-0.637c-1.125,0.62-1.486,2.855-2.371,3.186
		c1.016-2.982,2.635-6.938,2.844-10.672c0.053-0.922,0.258-2.509-0.631-3.025c-2.113,4.188-2.504,10.961-5.217,14.016
		c1.191-4.427,3.213-8.868,2.527-14.652c-1.547,5.396-2.072,11.819-5.373,15.449c-0.277,0.305-0.336,0.83-0.475,1.273
		c-1.512,0.871-2.135,2.979-3.637,4.141c-0.256,0.201-0.834,0.133-1.105,0.32c-1.209,0.83-2.092,1.832-3.162,2.547
		c-3.537,2.367-7.271,3.855-12.488,4.619c-0.589,0.088-1.025,0.578-1.581,0.637c-1.962,0.213-5.539-0.707-6.955-0.955
		c-0.284,0.021-0.37-0.156-0.315-0.477c-1.809,0.51-4.353-0.898-6.008-1.594c-0.299,0.035-0.349-0.18-0.632-0.158
		c0-0.055,0-0.107,0-0.16c-2.716-1.352-5.229-2.906-6.955-5.256c-0.487-0.119-0.192,0.549-0.791,0.318
		c-1.578-2.923-3.287-5.713-5.058-8.441c-0.616-2.887-1.36-6.481-1.581-9.237c0.618,0.226,0.495,1.199,0.791,1.752
		c-0.239-1.918,0.172-3.54-0.158-5.256c-0.046,0.537-0.079,1.088-0.315,1.433c0.103-1.011,0.078-2.15,0.474-2.867
		c0.091,0.28-0.191,0.937,0.157,0.957c-0.035-0.856,0.42-2.129-0.157-1.752c0.917-6.457,4.089-10.64,7.112-14.973
		c-2.055,0-2.873,1.245-4.584,1.593c0.977-5.44,5.844-6.96,9.01-10.192c-0.491,0.043-1.322,0.566-1.58,0.317
		c0.785-1.491,2.966-2.425,3.636-3.504c-9.239,3.379-16.125,9.979-19.127,19.113c0.858-2.056,2.135-4.538,3.478-5.575
		c-2.541,3.332-4.006,7.749-5.375,12.264c0.092-0.498,0.525-1.479,0.158-1.91c-0.893,3.343-1.033,8.129-0.947,11.944
		c-0.688-2.122-0.479-5.145-0.791-7.645c-0.4,3.187,0.18,6.981,0,9.875c-0.199-1.445-0.422-2.867-0.633-4.302
		c-0.09-1.795-0.177,0.365-0.158,0.797c0.08,1.802,0.893,4.888,0.791,6.053c-0.287-1.278-0.979-3.995-1.105-6.053
		c-0.046-0.748-0.307-3.143,0.158-3.664c-0.125,0.142,0.154,0.5,0.158,0.479c0.42-2.285,0.379-4.371,0.791-6.371
		c1.274-6.193,3.679-10.886,6.48-15.131c-3.199,3.201-4.751,8.061-6.48,12.742C21.521,18.839,33.98,8.829,56.292,8.748
		C50.521,7.631,43.203,8.73,38.904,9.544c3.487-1.53,7.912-2.117,11.855-3.187c-0.725-1.227-2.538-1.09-4.268-0.955
		c-8.485,0.658-16.352,4.693-21.973,9.715c-5.828,5.205-10.255,11.773-11.697,20.068c-1.541,8.866-0.25,20.461,3.002,26.279
		c4.24,7.582,11.972,13.221,20.234,16.404c1.303,0.502,3.294,0.896,3.952,1.594c0-0.105,0-0.213,0-0.318
		c0.351-0.088,0.226,0.305,0.474,0.318c3.514,0.43,7.623,1.256,12.33,0.955c8.558-0.545,16.246-4.555,21.498-9.557
		c5.406-5.15,9.691-11.9,11.381-19.59C85.187,52.673,84.897,54.294,83.798,55.096z M33.055,11.613
		c0.246,0.178-1.407,1.229-2.055,1.752c-5.32,4.291-11.261,8.973-14.228,15.769C19.703,21.414,25.635,15.341,33.055,11.613z
		 M13.296,38.85c-0.541-2.615,0.908-4.605,1.738-6.371C14.746,34.259,13.588,36.542,13.296,38.85z M25.467,66.723
		c-4.254-4.633-7.078-10.707-7.587-19.113c0.92,5.815,2.475,10.994,5.216,14.973c0.132,0.51,0.136,0.33-0.157,0.637
		c0.92,1.143,1.823,2.303,2.687,3.504C25.847,66.914,25.639,66.785,25.467,66.723z M36.691,75.482
		c-3.44-1.709-7.399-3.744-9.483-7.008c3.577,3.299,7.649,6.098,12.487,8.123C38.621,76.881,37.673,75.971,36.691,75.482z
		 M40.01,76.756c2.14,0.607,4.534,0.953,6.481,1.752C43.998,78.26,41.285,78.234,40.01,76.756z"/>
	<path fill="#059AB7" d="M58.03,8.748c2.482,0.419,4.855,1.798,6.797,2.23C62.97,9.929,60.864,8.281,58.03,8.748z"/>
	<path fill="#059AB7" d="M69.728,20.056c-2.617-2.78-8.082-6.295-13.91-6.37C61.604,14.65,65.835,17.186,69.728,20.056z"/>
	<path fill="#059AB7" d="M35.742,24.834c-1.842,0.215-2.869,2.098-3.318,3.186C33.322,26.749,34.668,25.928,35.742,24.834z"/>
	<path fill="#405971" d="M118.099,42.354c-7.727-7.261-18.514-12.877-32.246-13.856c-0.186,0.024-0.449-0.027-0.475,0.159
		c2.299,0.179,4.463,0.494,6.006,1.434c-0.264,0.266-1.152-0.102-1.105,0.479c1.66,0.769,3.76,1.096,5.217,2.069
		c-3.754-0.644-9.314-1.431-13.91-1.114c-1.467,0.101-4.02,0.32-4.27,1.592c1.523,1.051,3.715,0.707,5.691,0.797
		c4.971,0.228,10.279,0.902,13.752,2.548c-6.031-0.836-14.701-1.84-20.074,0.317c2.896,0.492,5.455,0.02,8.535,0.16
		c3.609,0.166,7.979,0.522,10.434,1.594c0.688,0.3,1.197,0.863,1.896,1.115c0.555,0.199,1.189,0.131,1.738,0.317
		c2.305,0.783,3.92,2.89,6.164,3.504c0.189,0.341,0.17,0.89,0.475,1.115c4.539,3.138,8.395,7.937,10.908,13.06
		c0.895,1.823,1.494,3.914,2.369,5.734c0.318,0.662,0.902,1.047,1.107,1.752c0.822,2.818,0.438,6.176,0.475,8.281
		c0.262,0.172,0.262,1.422,0,1.594c-0.137,8.092-2.424,14.018-6.008,18.635c-0.225,0.705,0.535,0.416,0.475,0.955
		c-3.131,2.367-5.344,5.658-8.852,7.646c-0.271,0.205-0.004,0.953-0.475,0.955c-3.58,1.543-7.16,3.086-11.064,4.301
		c-0.174-0.627,1.35-0.969,0.631-1.115c-1.584,0.475-3.611,0.502-5.059,1.115c0.43,0.1,1.256-0.203,1.424,0.16
		c-1.229-0.07-2.037,0.283-3.32,0.158c0.004-0.264,0.439-0.09,0.475-0.318c-0.645-0.418-2.234-0.008-1.738,0.318
		c-0.324,0.264-1.729,0.264-2.055,0c-8.039,0.084-13.021-2.914-18.494-5.416c0.312,2.656,2.457,3.471,3.162,5.734
		c-7.564-0.502-10.34-5.828-15.018-9.238c0.023,0.777,1.037,1.391,0.633,2.07c-0.887-0.436-1.794-1.207-2.687-1.912
		c-0.787-0.617-1.918-1.922-2.373-1.752c6.044,10.105,15.375,17.744,29.085,19.592c-3.32-0.637-6.273-1.643-8.693-3.186
		c4.941,2.24,10.996,3.361,17.703,3.822c-1.32,0.156-3.229-0.215-4.426,0c-0.551,0.1,0.668,0.145,0.791,0.16
		c5.457,0.689,12.213-0.885,15.965-1.594c-2.609,1.191-5.639,1.965-8.693,2.707c4.264-0.217,8.062-1.752,11.539-2.229
		c-1.896,0.85-4.189,1.299-6.008,2.229c3.482-0.58,6.75-2.227,9.484-3.025c-3.369,1.754-7.02,3.225-11.539,3.822
		c-0.65,0.076,0.213-0.488-0.633-0.318c-10.529,2.016-21.441-0.967-28.295-4.143c4.26,3.301,11.02,4.082,17.389,5.258
		c-12.938-0.625-22.461-5.896-29.4-12.742c-7.017-6.92-12.224-16.398-14.228-28.191c-0.248-0.014-0.123-0.404-0.474-0.316
		c0,0.104,0,0.211,0,0.316c0.532,7.715,2.96,13.744,5.216,19.271c-1.385-2.105-2.826-4.48-3.951-7.008
		c-1.144-2.564-1.531-5.566-3.479-7.484c-1.067,2.824,0.162,5.83,1.105,8.281c2.904,7.535,6.902,14.07,12.015,19.111
		c6.62,6.529,16.139,12.855,27.821,13.697c11.301,0.816,19.121-1.516,26.873-4.459c5.457-2.072,9.797-4.947,13.436-8.92
		c6.959-7.596,12.547-18.551,13.121-31.695C132.917,63.076,127.118,50.832,118.099,42.354z M48.705,104.789
		c7.46,7.4,15.373,14.346,27.187,17.359C63.817,120.035,54.741,113.52,48.705,104.789z M79.845,123.424
		c2.592-0.115,5.49,0.84,8.693,0.637C85.905,125.197,82.077,124.195,79.845,123.424z M97.708,116.098
		c-0.57,0.064-0.219-0.291,0.156-0.158c7.275-2.334,13.398-5.826,18.18-10.672c0.281,0.115,0.021,0.289,0,0.477
		c1.434-0.785,2.814-3.002,4.109-4.459C115.681,108.615,107.478,113.57,97.708,116.098z M121.894,99.055
		c4.295-7.299,7.969-15.225,7.588-27.234c0.141,0.068,0.281,0.139,0.314,0.316C130.634,82.764,126.995,92.84,121.894,99.055z"/>
	<path fill="#405971" d="M45.859,70.863c-0.054,0.32,0.032,0.498,0.316,0.479c0.641-5.832,2.786-10.996,4.584-15.131
		C48.316,60.277,46.178,64.654,45.859,70.863z"/>
	<path fill="#405971" d="M40.643,64.492c-0.44,1.52-1.036,2.885-1.423,4.459c0,0.055,0,0.107,0,0.16
		c0.284-0.021,0.333,0.193,0.632,0.16C39.937,67.604,40.84,65.914,40.643,64.492z"/>
	<path fill="#405971" d="M56.767,38.691c0.748-0.764,2.932-1.758,2.686-2.549c-8.964,5.778-15.662,14.693-18.019,26.598
		c2.107-7.572,6.258-13.709,10.749-18.793C53.734,42.191,55.228,40.259,56.767,38.691z"/>
	<path fill="#405971" d="M56.134,67.199c0.1-0.684,0.738-2.387,0.475-2.389C56.468,65.521,55.704,66.443,56.134,67.199z"/>
	<path fill="#405971" d="M47.441,94.596c-1.959-4.133-2.892-9.299-4.111-14.176C43.539,86.316,45.277,90.67,47.441,94.596z"/>
	<path fill="#405971" d="M55.817,82.172c-0.111-0.576-0.059-1.32-0.314-1.752C55.19,80.889,55.29,82.047,55.817,82.172z"/>
	<path fill="#405971" d="M69.255,102.08c-1.576-0.748-2.967-2.533-4.27-3.025C65.657,100.715,67.597,101.945,69.255,102.08z"/>
	<path fill="#405971" d="M59.452,92.205c-0.184-1.086-0.768-1.771-1.264-2.547C58.528,90.59,58.433,91.961,59.452,92.205z"/>
</g>
</svg>
